<svg width="56" height="56" viewBox="0 0 56 56" fill="none" xmlns="http://www.w3.org/2000/svg">
<path d="M25.6667 4.66666H30.3333V9.33333H31.5C32.4282 9.33333 33.3185 9.70208 33.9749 10.3585C34.6312 11.0148 35 11.9051 35 12.8333V21L33.9733 22.0267L37.8 28.6533C40.39 26.11 42 22.5867 42 18.6667H46.6667C46.6667 24.3133 44.17 29.3767 40.2033 32.8067L47.53 45.5L47.8333 50.68L43.47 47.8333L36.3067 35.3967C33.8333 36.6333 30.9867 37.3333 28 37.3333C25.0133 37.3333 22.1667 36.6333 19.6933 35.3967L12.53 47.8333L8.16666 50.68L8.46999 45.5L22.0267 22.0267L21 21V12.8333C21 11.9051 21.3687 11.0148 22.0251 10.3585C22.6815 9.70208 23.5717 9.33333 24.5 9.33333H25.6667V4.66666ZM22.0267 31.3367C23.8467 32.2 25.8767 32.6667 28 32.6667C30.1233 32.6667 32.1533 32.2 33.9733 31.3367L30.5667 25.4333H30.5433C29.0967 26.8333 26.9033 26.8333 25.4567 25.4333H25.4333L22.0267 31.3367ZM28 14C27.3812 14 26.7877 14.2458 26.3501 14.6834C25.9125 15.121 25.6667 15.7145 25.6667 16.3333C25.6667 16.9522 25.9125 17.5457 26.3501 17.9832C26.7877 18.4208 27.3812 18.6667 28 18.6667C28.6188 18.6667 29.2123 18.4208 29.6499 17.9832C30.0875 17.5457 30.3333 16.9522 30.3333 16.3333C30.3333 15.7145 30.0875 15.121 29.6499 14.6834C29.2123 14.2458 28.6188 14 28 14Z" fill="black"/>
</svg>
