<svg width="56" height="56" viewBox="0 0 56 56" fill="none" xmlns="http://www.w3.org/2000/svg">
<path d="M6.99996 39.6667C6.38112 39.6667 5.78763 39.4209 5.35004 38.9833C4.91246 38.5457 4.66663 37.9522 4.66663 37.3334C4.66663 36.7146 4.91246 36.1211 5.35004 35.6835C5.78763 35.2459 6.38112 35.0001 6.99996 35.0001H31.5C33.8333 35.0001 36.1666 39.6667 35 39.6667H6.99996ZM39.6666 39.6667C39.0478 39.6667 38.4543 39.4209 38.0167 38.9833C37.5791 38.5457 37.3333 37.9522 37.3333 37.3334C37.3333 36.7146 37.5791 36.1211 38.0167 35.6835C38.4543 35.2459 39.0478 35.0001 39.6666 35.0001H49C49.6188 35.0001 50.2123 35.2459 50.6499 35.6835C51.0875 36.1211 51.3333 36.7146 51.3333 37.3334C51.3333 37.9522 51.0875 38.5457 50.6499 38.9833C50.2123 39.4209 49.6188 39.6667 49 39.6667H39.6666ZM29.477 8.16908C29.7858 7.63255 30.295 7.24066 30.8928 7.07963C31.4905 6.9186 32.1278 7.00161 32.6643 7.31041C33.2008 7.61921 33.5927 8.1285 33.7537 8.72624C33.9148 9.32398 33.8318 9.96121 33.523 10.4977L17.4066 38.4884C17.2539 38.7541 17.0503 38.9871 16.8075 39.174C16.5647 39.361 16.2875 39.4984 15.9916 39.5782C15.6958 39.658 15.3871 39.6788 15.0832 39.6394C14.7793 39.5999 14.4861 39.501 14.2205 39.3482C13.9548 39.1955 13.7218 38.9919 13.5348 38.7491C13.3478 38.5063 13.2105 38.2291 13.1307 37.9332C13.0508 37.6374 13.03 37.3287 13.0695 37.0248C13.1089 36.7209 13.2079 36.4277 13.3606 36.1621L29.477 8.16908ZM9.33329 43.1667C10.5 40.8334 17.5 38.5001 15.1666 42.5134C13.9006 44.678 12.6305 46.8403 11.3563 49.0001C11.0475 49.5366 10.5382 49.9285 9.94046 50.0895C9.34272 50.2506 8.70549 50.1675 8.16896 49.8587C7.63243 49.5499 7.24054 49.0407 7.07951 48.4429C6.91848 47.8452 7.00149 47.2079 7.31029 46.6714L9.33329 43.1667ZM21.3103 10.4977C21.0015 9.96121 20.9185 9.32398 21.0795 8.72624C21.2405 8.1285 21.6324 7.61921 22.169 7.31041C22.7055 7.00161 23.3427 6.9186 23.9405 7.07963C24.5382 7.24066 25.0475 7.63255 25.3563 8.16908L29.4233 15.2367C29.5811 15.5025 29.6845 15.7969 29.7275 16.1029C29.7706 16.4089 29.7524 16.7204 29.6741 17.0194C29.5958 17.3183 29.4588 17.5987 29.2712 17.8443C29.0837 18.0899 28.8492 18.2958 28.5814 18.45C28.3136 18.6042 28.0178 18.7037 27.7113 18.7427C27.4047 18.7816 27.0934 18.7593 26.7956 18.677C26.4977 18.5947 26.2192 18.4541 25.9761 18.2633C25.733 18.0724 25.5303 17.8352 25.3796 17.5654L21.3103 10.4977ZM30.3333 26.8334C28.238 23.3334 30.3333 16.3334 32.004 19.8241L47.5206 46.6667C47.8197 47.2024 47.8958 47.8342 47.7324 48.4256C47.569 49.0169 47.1794 49.5201 46.6477 49.8262C46.1161 50.1324 45.4853 50.2168 44.8919 50.0613C44.2985 49.9058 43.7901 49.5229 43.477 48.9954L30.3333 26.8334Z" fill="black"/>
</svg>
