<svg width="56" height="56" viewBox="0 0 56 56" fill="none" xmlns="http://www.w3.org/2000/svg">
<path d="M42.5469 1.16812C42.2554 1.17958 41.9714 1.26336 41.7203 1.4119C41.4693 1.56045 41.2592 1.76909 41.1088 2.01906C40.5658 2.99032 40.002 3.94984 39.4179 4.89694C34.8491 12.4281 30.1993 11.5824 21.9118 7.60419L10.4077 2.19012C9.47844 1.76575 8.46519 2.19012 8.04081 3.03581L2.5445 15.4744C2.121 16.3218 2.5445 17.423 3.39063 17.8447C5.84238 18.9455 10.6636 21.231 14.8903 23.345C30.5384 30.7943 43.8156 30.3699 53.9621 13.8679H53.963C54.5665 12.9158 55.1589 11.9567 55.7401 10.9909C56.2476 10.1452 55.9926 9.04487 55.1473 8.5365L43.5601 1.42625C43.2551 1.24247 42.9027 1.15268 42.5469 1.16812ZM23.2636 27.9891C15.1904 28.1746 8.06138 32.3343 2.037 42.1326C1.43319 43.0846 0.840482 44.0437 0.259001 45.0096C-0.246749 45.8552 0.00656342 46.9556 0.851813 47.4639L12.439 54.5737C13.2847 55.0812 14.3824 54.8262 14.8903 53.9809C15.4342 53.0102 15.998 52.0507 16.5813 51.1031C21.1501 43.5719 25.8007 44.4176 34.0883 48.3958L45.5914 53.8099C46.5207 54.2342 47.5366 53.8099 47.9583 52.9642L53.4573 40.5261C53.8781 39.6786 53.4568 38.5796 52.6085 38.1557C50.1568 37.0549 45.3381 34.7694 41.1088 32.6554C34.7528 29.5951 28.7875 27.8617 23.2636 27.9891Z" fill="black"/>
</svg>
