<svg width="56" height="56" viewBox="0 0 56 56" fill="none" xmlns="http://www.w3.org/2000/svg">
<path d="M9.57833 9.57833C9.57833 9.57833 21.3687 3.68667 27.2627 0.737333C28.3361 0.210468 29.5234 -0.0420648 30.7183 0.0023334C32.5057 0.112 34.6313 1.841 34.6313 1.841L56 23.212V46.053H46.053V56H22.841L1.841 35C0.707 33.8333 0 32.1883 0 30.5783C0 29.834 0.42 28.6697 0.737333 28L9.57833 9.57833ZM11.1627 11.1627V38.6657C11.1673 39.9327 11.2117 41.055 12.3247 42.1843L23.8093 53.6667H43.7197V43.7197L11.1627 11.1627ZM39.291 9.58067C37.1933 7.49 35.07 5.42733 32.8977 3.41367C32.193 2.79067 31.5747 2.32167 30.401 2.33567C29.5377 2.36833 28.371 2.79067 28.371 2.79067L14.7957 9.57833L39.291 9.58067Z" fill="black"/>
</svg>
