<svg width="56" height="56" viewBox="0 0 56 56" fill="none" xmlns="http://www.w3.org/2000/svg">
<path d="M50.89 23.9167C50.75 23.8233 49.5833 22.9133 47.0633 22.9133C46.41 22.9133 45.7567 22.9833 45.1033 23.1C44.6133 19.8333 41.8833 18.1767 41.7667 18.1067L41.09 17.71L40.67 18.34C40.11 19.18 39.6667 20.1367 39.48 21.1167C39.0133 22.9833 39.2933 24.7567 40.25 26.2733C39.1067 26.9267 37.24 27.09 36.8433 27.09H6.11332C5.31999 27.09 4.66666 27.7433 4.66666 28.56C4.66666 31.2433 5.08666 33.9267 6.01999 36.4467C7.06999 39.2233 8.65666 41.2767 10.6867 42.5367C12.9733 43.9367 16.73 44.73 21 44.73C22.8433 44.73 24.7567 44.5667 26.6467 44.2167C29.26 43.75 31.78 42.84 34.09 41.51C36.0031 40.416 37.7155 39.0035 39.1533 37.3333C41.6033 34.6033 43.05 31.5 44.1 28.8167H44.5433C47.2033 28.8167 48.86 27.7433 49.77 26.8333C50.3767 26.2733 50.82 25.5967 51.1467 24.8033L51.3333 24.2433L50.89 23.9167ZM8.98332 26.2267H13.09C13.2767 26.2267 13.4633 26.0633 13.4633 25.8533V22.1667C13.4633 21.98 13.3 21.7933 13.09 21.7933H8.98332C8.77332 21.7933 8.60999 21.9567 8.60999 22.1667V25.8533C8.63332 26.0633 8.77332 26.2267 8.98332 26.2267ZM14.6533 26.2267H18.76C18.9467 26.2267 19.1333 26.0633 19.1333 25.8533V22.1667C19.1333 21.98 18.97 21.7933 18.76 21.7933H14.6533C14.4433 21.7933 14.28 21.9567 14.28 22.1667V25.8533C14.3033 26.0633 14.4433 26.2267 14.6533 26.2267ZM20.4167 26.2267H24.5C24.7333 26.2267 24.8967 26.0633 24.8967 25.8533V22.1667C24.8967 21.98 24.7567 21.7933 24.5 21.7933H20.4167C20.23 21.7933 20.0667 21.9567 20.0667 22.1667V25.8533C20.0667 26.0633 20.2067 26.2267 20.4167 26.2267ZM26.11 26.2267H30.24C30.4267 26.2267 30.59 26.0633 30.59 25.8533V22.1667C30.59 21.98 30.45 21.7933 30.24 21.7933H26.11C25.9233 21.7933 25.76 21.9567 25.76 22.1667V25.8533C25.76 26.0633 25.9233 26.2267 26.11 26.2267ZM14.6533 21H18.76C18.9467 21 19.1333 20.79 19.1333 20.58V16.9167C19.1333 16.7067 18.97 16.5433 18.76 16.5433H14.6533C14.4433 16.5433 14.28 16.6833 14.28 16.9167V20.58C14.3033 20.79 14.4433 21 14.6533 21ZM20.4167 21H24.5C24.7333 21 24.8967 20.79 24.8967 20.58V16.9167C24.8967 16.7067 24.7567 16.5433 24.5 16.5433H20.4167C20.23 16.5433 20.0667 16.6833 20.0667 16.9167V20.58C20.0667 20.79 20.2067 21 20.4167 21ZM26.11 21H30.24C30.4267 21 30.59 20.79 30.59 20.58V16.9167C30.59 16.7067 30.4267 16.5433 30.24 16.5433H26.11C25.9233 16.5433 25.76 16.6833 25.76 16.9167V20.58C25.76 20.79 25.9233 21 26.11 21ZM26.11 15.68H30.24C30.4267 15.68 30.59 15.5167 30.59 15.3067V11.6667C30.59 11.4333 30.4267 11.27 30.24 11.27H26.11C25.9233 11.27 25.76 11.41 25.76 11.6667V15.3067C25.76 15.4933 25.9233 15.68 26.11 15.68ZM31.85 26.2267H35.9567C36.1667 26.2267 36.33 26.0633 36.33 25.8533V22.1667C36.33 21.98 36.1667 21.7933 35.9567 21.7933H31.85C31.6633 21.7933 31.5 21.9567 31.5 22.1667V25.8533C31.5 26.0633 31.6633 26.2267 31.85 26.2267Z" fill="black"/>
</svg>
