<svg width="56" height="56" viewBox="0 0 56 56" fill="none" xmlns="http://www.w3.org/2000/svg">
<path d="M55.4181 43.0675C53.4231 43.575 52.1894 43.0894 51.0825 41.4269C48.5975 37.7038 45.8544 34.1513 43.2075 30.5331C42.8663 30.065 42.5119 29.6056 42.07 29.0237C38.9375 33.25 35.8094 37.275 32.8738 41.4619C31.8238 42.9581 30.7213 43.61 28.7613 43.0806L40.5388 27.2738L29.575 12.9981C31.4606 12.6306 32.7644 12.8188 33.9194 14.5075C36.47 18.235 39.2831 21.7831 42.0875 25.5369C44.9094 21.7963 47.6875 18.2437 50.3125 14.5513C51.3669 13.055 52.5 12.4863 54.3944 13.0375C52.9594 14.9406 51.555 16.8131 50.1419 18.6725C48.2344 21.1794 46.3619 23.7169 44.3844 26.1713C43.68 27.0463 43.7938 27.615 44.4238 28.4419C48.0813 33.25 51.695 38.1063 55.4181 43.0675ZM0.581881 27.0113C0.896881 25.4319 1.10688 23.8219 1.54438 22.2731C4.16938 12.8975 14.9319 8.99938 22.3256 14.8094C26.6569 18.2175 27.7331 23.0213 27.5188 28.4375H3.10626C2.73876 38.1544 9.73438 44.0213 18.6506 41.0288C21.7788 39.9788 23.6206 37.5288 24.5438 34.4663C25.0119 32.9306 25.7863 32.69 27.23 33.1275C26.4906 36.96 24.815 40.1625 21.315 42.1663C16.065 45.1675 8.57063 44.1963 4.62876 40.0269C2.30126 37.5769 1.31251 34.5275 0.875006 31.2331C0.809381 30.7081 0.673756 30.1919 0.568756 29.6713C0.577506 28.7846 0.581881 27.8979 0.581881 27.0113ZM3.15001 26.3594H25.2131C25.0688 19.3331 20.6938 14.3413 14.7131 14.2975C8.15063 14.245 3.43438 19.1188 3.15001 26.3594Z" fill="black"/>
</svg>
