<svg width="56" height="56" viewBox="0 0 56 56" fill="none" xmlns="http://www.w3.org/2000/svg">
<path d="M19.0027 44.758C18.7543 44.1877 18.3534 43.6969 17.8442 43.3396C17.335 42.9823 16.7371 42.7723 16.1163 42.7327L12.348 31.122L11.4847 28.4737C11.445 28.497 11.2233 28.595 11.1813 28.6137C11.1627 28.637 11.123 28.637 11.1043 28.6557C11.0472 28.679 10.9925 28.7079 10.941 28.742C10.8656 28.7841 10.7858 28.8178 10.703 28.8423C10.6027 28.8797 10.521 28.9217 10.423 28.9403C10.3413 28.9637 10.2597 29.0033 10.1803 29.0243C10.087 29.0477 9.98667 29.0827 9.88634 29.1037C9.80856 29.1254 9.72845 29.1457 9.64601 29.1643C9.54133 29.1898 9.43407 29.2031 9.32634 29.204C9.24467 29.2273 9.16301 29.2273 9.08601 29.2437C9.02067 29.2437 8.96001 29.2437 8.89934 29.267H8.52601C8.40467 29.267 8.30434 29.267 8.18534 29.2437C8.10367 29.2437 8.02201 29.2437 7.96367 29.2203L7.57867 29.162C7.51801 29.1387 7.45734 29.1387 7.37801 29.1223C7.18165 29.084 6.98703 29.0373 6.79467 28.9823C6.06374 28.7521 5.38533 28.3801 4.79821 27.8876C4.21109 27.3951 3.72677 26.7917 3.37292 26.112C3.01906 25.4322 2.80262 24.6894 2.73594 23.926C2.66927 23.1626 2.75368 22.3935 2.98434 21.6627C3.96667 18.5967 7.23801 16.87 10.3063 17.85L11.109 15.2833C8.94797 14.6086 6.60775 14.8164 4.59936 15.8612C2.59098 16.9061 1.07759 18.7031 0.389674 20.86C-0.281566 23.0198 -0.0720945 25.3574 0.972453 27.3634C2.017 29.3695 3.81198 30.8815 5.96634 31.57C7.19434 31.9352 8.48562 32.037 9.75567 31.8687L13.5683 43.617C13.3623 43.8009 13.1804 44.0103 13.027 44.24C12.7696 44.6131 12.5886 45.0335 12.4946 45.4769C12.4006 45.9204 12.3955 46.378 12.4794 46.8235C12.5634 47.2689 12.7348 47.6933 12.9838 48.0721C13.2328 48.4509 13.5544 48.7766 13.93 49.0303C14.3536 49.3231 14.8377 49.5167 15.3464 49.5968C15.8551 49.6769 16.3752 49.6414 16.8683 49.4931C17.3614 49.3447 17.8148 49.0872 18.1947 48.7397C18.5747 48.3922 18.8716 47.9636 19.0633 47.4857C19.3909 46.6027 19.3658 45.6276 18.9933 44.7627L19.0027 44.758ZM27.769 0.961334C26.6477 0.972305 25.5396 1.20423 24.5081 1.64384C23.4765 2.08344 22.5417 2.72211 21.7572 3.52331C20.9727 4.3245 20.3539 5.27251 19.9361 6.31309C19.5183 7.35367 19.3097 8.46641 19.3223 9.58767C19.3457 10.8477 19.6653 12.131 20.209 13.2743L10.2223 20.5333C9.98165 20.3962 9.72552 20.2881 9.45934 20.2113C9.02623 20.0826 8.57195 20.0406 8.12259 20.088C7.67324 20.1353 7.23766 20.2709 6.84088 20.4871C6.4441 20.7033 6.09394 20.9957 5.81052 21.3476C5.52709 21.6995 5.31599 22.1039 5.18934 22.5377C4.64567 24.3577 5.68867 26.2617 7.51334 26.8077C7.75445 26.8839 7.99556 26.9228 8.23667 26.9243C9.17934 26.9827 10.1033 26.6677 10.78 26.0377C11.2467 25.6177 11.606 25.1043 11.7833 24.4557C11.9576 23.8761 11.9722 23.2602 11.8253 22.673L21.7117 15.4863L23.9563 13.8483C23.9167 13.8063 23.7767 13.6477 23.737 13.608L23.6763 13.5473C23.6359 13.5069 23.5955 13.4602 23.555 13.4073C23.4932 13.346 23.4384 13.2779 23.3917 13.2043C23.3351 13.1224 23.276 13.0422 23.2143 12.964C23.1537 12.9033 23.114 12.824 23.051 12.7633C22.9926 12.6813 22.9396 12.5956 22.8923 12.5067C22.8528 12.4278 22.806 12.3528 22.7523 12.2827C22.6995 12.1926 22.6527 12.099 22.6123 12.0027C22.5727 11.9233 22.533 11.8627 22.512 11.781L22.4513 11.6177C22.4373 11.578 22.4187 11.5197 22.3977 11.4777C22.3743 11.3983 22.3393 11.3143 22.3183 11.2583C22.281 11.1557 22.26 11.0343 22.2203 10.9153L22.162 10.6913C22.1387 10.5747 22.1223 10.4347 22.1013 10.311C22.1013 10.2527 22.078 10.1943 22.0593 10.1127C22.0329 9.91152 22.0197 9.70887 22.0197 9.506C22.0117 8.73975 22.1547 7.97943 22.4406 7.26848C22.7266 6.55753 23.1498 5.90988 23.6861 5.36253C24.2223 4.81519 24.8612 4.37887 25.5662 4.0785C26.2712 3.77814 27.0284 3.61962 27.7947 3.612C28.5609 3.60399 29.3212 3.74704 30.0322 4.03296C30.7431 4.31888 31.3908 4.74208 31.9381 5.27838C32.4855 5.81467 32.9218 6.45356 33.2222 7.15853C33.5225 7.8635 33.6811 8.62075 33.6887 9.387L36.3767 9.36367C36.344 4.69 32.48 0.900667 27.7667 0.956667L27.769 0.961334ZM55.5543 21.1773C54.8305 19.0338 53.2865 17.2647 51.2606 16.2574C49.2348 15.2502 46.8923 15.087 44.7463 15.8037C43.5385 16.2247 42.4361 16.9021 41.5147 17.7893L31.528 10.535C31.5887 10.2713 31.6073 9.99133 31.6073 9.709C31.5781 8.79898 31.1913 7.93718 30.5309 7.3104C29.8705 6.68363 28.9896 6.34239 28.0793 6.36067C27.1685 6.38935 26.3057 6.77618 25.6784 7.43716C25.0511 8.09814 24.7098 8.97991 24.7287 9.891C24.7481 10.478 24.918 11.0501 25.2219 11.5527C25.5259 12.0552 25.9538 12.4713 26.4647 12.761C27.006 13.0597 27.6313 13.2393 28.2893 13.2207C28.9123 13.1973 29.5143 13.02 29.9927 12.698L39.8837 19.8777L42.1283 21.5227L42.2917 21.2427C42.3103 21.224 42.3103 21.1843 42.329 21.1633C42.3477 21.1003 42.3873 21.0607 42.4083 21C42.448 20.9207 42.4877 20.86 42.525 20.7807C42.5908 20.7012 42.6457 20.6133 42.6883 20.5193L42.8283 20.321C42.8859 20.2386 42.9528 20.1577 43.029 20.0783C43.0897 20.0177 43.1293 19.9617 43.1923 19.8777L43.4117 19.656L43.5913 19.474C43.6333 19.4343 43.673 19.3947 43.7313 19.3573C43.7733 19.3153 43.8153 19.2943 43.855 19.2547C43.9132 19.1966 43.9811 19.1492 44.0557 19.1147C44.149 19.054 44.2517 18.9933 44.3357 18.9327C44.397 18.8875 44.4627 18.8484 44.5317 18.816C44.653 18.753 44.751 18.6923 44.8723 18.6293C44.933 18.6107 44.9937 18.571 45.052 18.5523C45.7962 18.2151 46.6027 18.0373 47.4198 18.0304C48.2368 18.0234 49.0462 18.1875 49.796 18.5121C50.5458 18.8367 51.2194 19.3146 51.7735 19.915C52.3276 20.5155 52.7499 21.2252 53.0133 21.9987C53.5046 23.466 53.3944 25.0682 52.7069 26.4545C52.0195 27.8408 50.8107 28.8983 49.3453 29.3953L50.2087 31.9387C54.642 30.4757 57.0453 25.6387 55.5613 21.1703L55.5543 21.1773ZM50.5003 22.624C50.1947 21.7655 49.5608 21.0633 48.7379 20.6718C47.915 20.2802 46.9703 20.2313 46.1113 20.5357C45.8795 20.6209 45.6574 20.7304 45.4487 20.8623C44.646 21.3617 44.086 22.169 43.904 23.0673C43.7873 23.6693 43.8037 24.311 44.0253 24.934C44.2447 25.5337 44.5853 26.0143 45.0473 26.397L41.2767 38.0077L40.4133 40.6537C40.4553 40.6537 40.6747 40.7143 40.7353 40.7143C40.775 40.7143 40.796 40.7143 40.8357 40.7377C40.901 40.7563 40.9617 40.7563 41.0223 40.7773C41.1048 40.7991 41.1857 40.8186 41.265 40.8357C41.3653 40.859 41.4657 40.8963 41.5683 40.9173C41.6453 40.9407 41.727 40.957 41.8063 40.9967L42.0863 41.1133C42.168 41.1553 42.2497 41.1763 42.3267 41.216C42.42 41.2557 42.504 41.3163 42.6067 41.356C42.6837 41.3957 42.7467 41.4353 42.8237 41.4773C42.8843 41.5007 42.924 41.5357 42.9637 41.5777C43.0057 41.601 43.0453 41.6337 43.085 41.6547C43.1457 41.6967 43.225 41.7363 43.2857 41.7947C43.3825 41.8581 43.4711 41.9334 43.5493 42.0187C43.6077 42.056 43.666 42.1167 43.729 42.1587C43.8293 42.2357 43.9087 42.336 44.009 42.4387C44.0557 42.476 44.1093 42.518 44.149 42.5787C44.289 42.7187 44.4057 42.882 44.5317 43.0383C45.4507 44.2812 45.84 45.8375 45.6144 47.3668C45.3887 48.896 44.5665 50.2735 43.3277 51.198C42.0842 52.1183 40.5268 52.5085 38.9962 52.2833C37.4657 52.0581 36.0867 51.2358 35.161 49.9963L32.998 51.597C35.8097 55.3677 41.1647 56.1703 44.9353 53.3633C48.706 50.5563 49.5087 45.2037 46.6993 41.4353C45.9268 40.4136 44.9421 39.5714 43.813 38.9667L47.621 27.216C48.1403 27.1608 48.6403 26.9886 49.0835 26.7123C49.5266 26.436 49.9013 26.0628 50.1793 25.6208C50.4574 25.1788 50.6316 24.6794 50.6888 24.1603C50.746 23.6413 50.6848 23.116 50.5097 22.624H50.5003ZM42.4667 44.1117C42.1111 43.6482 41.6417 43.2848 41.104 43.0566C40.5663 42.8284 39.9787 42.7434 39.3983 42.8097C38.7605 42.8669 38.1536 43.1103 37.653 43.5097C37.1513 43.89 36.7897 44.3917 36.568 44.933H21.567C21.567 44.9727 21.5903 45.213 21.6137 45.2527C21.6137 45.2947 21.6137 45.3133 21.637 45.353C21.637 45.4137 21.6603 45.4743 21.6603 45.535C21.6603 45.6143 21.6767 45.6983 21.6767 45.7963C21.6767 45.8967 21.6767 45.997 21.7 46.095V46.3563C21.7 46.4567 21.6767 46.557 21.6767 46.6597C21.6767 46.739 21.6533 46.8183 21.6533 46.9163C21.63 47.019 21.6067 47.1193 21.6067 47.2383C21.5903 47.32 21.5903 47.4017 21.5717 47.4787C21.5483 47.537 21.5483 47.5953 21.532 47.6653C21.5087 47.698 21.5087 47.7587 21.49 47.8053C21.4682 47.8784 21.448 47.9562 21.4293 48.0387C21.3897 48.139 21.35 48.2603 21.308 48.3653C21.2847 48.44 21.2497 48.5053 21.2287 48.58C21.1719 48.6952 21.112 48.8088 21.049 48.9207C21.0117 48.979 20.993 49.0373 20.972 49.1003C20.8755 49.2742 20.7679 49.4418 20.65 49.602C19.7497 50.8612 18.3866 51.7118 16.8598 51.9668C15.333 52.2219 13.7673 51.8606 12.5067 50.9623C11.8821 50.5177 11.3513 49.9544 10.9447 49.3045C10.538 48.6546 10.2634 47.9309 10.1367 47.1748C10.0099 46.4187 10.0334 45.645 10.2058 44.898C10.3783 44.151 10.6963 43.4453 11.1417 42.8213L8.95534 41.258C7.64809 43.102 7.12524 45.3891 7.50139 47.618C7.87754 49.8469 9.12199 51.8358 10.962 53.1487C12.8051 54.4576 15.0923 54.9815 17.3214 54.6053C19.5505 54.229 21.539 52.9834 22.8503 51.142C23.5923 50.1037 24.073 48.8787 24.3157 47.6373H36.6683C36.882 48.1129 37.2005 48.5339 37.6 48.8689C37.9996 49.2038 38.4698 49.4439 38.9753 49.5712C39.4809 49.6985 40.0087 49.7096 40.5192 49.6039C41.0297 49.4981 41.5097 49.2781 41.923 48.9603C43.3463 47.775 43.6263 45.6097 42.4643 44.107L42.4667 44.1117Z" fill="black"/>
</svg>
