<svg width="56" height="56" viewBox="0 0 56 56" fill="none" xmlns="http://www.w3.org/2000/svg">
<path d="M20.223 20.223C18.1601 20.223 16.1817 19.4035 14.723 17.9448C13.2643 16.4861 12.4448 14.5077 12.4448 12.4448C12.4448 10.3819 13.2643 8.40353 14.723 6.94484C16.1817 5.48615 18.1601 4.66667 20.223 4.66667H28V20.223M20.223 20.223H28M20.223 20.223C18.1604 20.223 16.1823 21.0424 14.7238 22.5008C13.2654 23.9593 12.446 25.9374 12.446 28C12.446 30.0626 13.2654 32.0407 14.7238 33.4992C16.1823 34.9576 18.1604 35.777 20.223 35.777H28V20.223" stroke="black" stroke-width="3.5"/>
<path d="M43.5563 28C43.5563 30.0629 42.7368 32.0413 41.2781 33.5C39.8195 34.9587 37.8411 35.7782 35.7782 35.7782C33.7153 35.7782 31.7368 34.9587 30.2782 33.5C28.8195 32.0413 28 30.0629 28 28C28 25.9371 28.8195 23.9587 30.2782 22.5C31.7368 21.0413 33.7153 20.2218 35.7782 20.2218C37.8411 20.2218 39.8195 21.0413 41.2781 22.5C42.7368 23.9587 43.5563 25.9371 43.5563 28ZM20.223 35.7793H28V43.5563C27.9995 45.0944 27.543 46.5977 26.6882 47.8764C25.8334 49.155 24.6186 50.1514 23.1975 50.7397C21.7764 51.3279 20.2128 51.4816 18.7043 51.1813C17.1959 50.8809 15.8104 50.1401 14.723 49.0523C13.6356 47.9646 12.8951 46.5789 12.5952 45.0704C12.2954 43.5618 12.4495 41.9983 13.0382 40.5773C13.6269 39.1564 14.6237 37.9419 15.9026 37.0875C17.1814 36.2331 18.6849 35.7793 20.223 35.7793Z" stroke="black" stroke-width="3.5"/>
<path d="M28 4.66667H35.777C37.8399 4.66667 39.8183 5.48615 41.277 6.94484C42.7357 8.40353 43.5552 10.3819 43.5552 12.4448C43.5552 14.5077 42.7357 16.4861 41.277 17.9448C39.8183 19.4035 37.8399 20.223 35.777 20.223H28V4.66667Z" stroke="black" stroke-width="3.5"/>
</svg>
