<svg width="56" height="56" viewBox="0 0 56 56" fill="none" xmlns="http://www.w3.org/2000/svg">
<path d="M45.395 19.5277C44.1397 17.7823 41.2463 14.196 36.806 8.86667C35.3464 7.11576 33.881 5.36964 32.41 3.62833L31.2713 2.28433L30.7883 1.71267L30.5247 1.40233L30.4733 1.32767L30.45 1.316L29.33 0L27.909 1.13867C24.2709 4.05837 21.3355 7.75844 19.32 11.9653C18.149 14.3025 17.329 16.7996 16.8863 19.376C16.7743 19.9469 16.6802 20.5212 16.604 21.098C16.1133 21.0582 15.6215 21.0325 15.1293 21.021L14.9917 21.014C13.196 20.9528 11.4017 21.1684 9.67165 21.6533L8.93199 21.861L8.55165 22.5283C6.75901 25.6762 5.75658 29.212 5.63032 32.8323C5.45677 37.4862 6.74874 42.0771 9.32399 45.9573C11.8247 49.7495 15.4226 52.6888 19.6373 54.383L20.188 54.6047L20.3537 54.663L20.3607 54.6607C22.5647 55.4588 24.8803 55.906 27.223 55.986C27.489 55.9953 27.755 56 28.021 56C30.9777 56.0029 33.9052 55.4142 36.631 54.2687L36.6497 54.278L37.38 53.9397C41.0844 52.2261 44.2521 49.5359 46.543 46.158C48.8985 42.6737 50.2254 38.5966 50.372 34.3933C50.547 29.351 48.8717 24.3507 45.395 19.5277ZM28.868 35.1493C29.6333 38.052 29.484 40.8427 28.4223 43.4513C25.774 40.838 23.8327 37.9633 22.6473 34.8997C21.3803 31.6237 20.6173 28.5063 20.3747 25.6247C21.4947 25.991 22.526 26.4787 23.443 27.076C26.0843 28.7957 27.909 31.5117 28.868 35.1493ZM29.351 49.2007C30.4757 50.0593 31.661 50.862 32.8813 51.5993C31.0816 52.0901 29.2178 52.3049 27.3537 52.2363C27.0632 52.226 26.773 52.2089 26.4833 52.185C27.5343 51.287 28.4941 50.2873 29.3487 49.2007H29.351ZM32.494 34.195C31.29 29.6287 28.931 26.1753 25.4893 23.933C23.9143 22.9215 22.1853 22.1728 20.37 21.7163C20.417 21.1592 20.4863 20.6042 20.5777 20.0527C21.0117 17.8215 21.7251 15.6539 22.701 13.601L22.7103 13.5823C23.1233 12.747 23.5877 11.9047 24.1337 11.004L24.3483 10.6493L24.3413 10.647C25.6126 8.66143 27.1357 6.8489 28.8727 5.25467L29.5447 6.05033C31.1127 7.90767 32.5873 9.66233 33.9267 11.27C36.939 14.8843 40.8473 19.6303 42.3547 21.7233C45.3343 25.8557 46.7717 30.0743 46.6247 34.265C46.5176 37.4276 45.6053 40.5106 43.9741 43.2222C42.3429 45.9337 40.0468 48.1842 37.303 49.7607C35.2122 48.7115 33.2281 47.462 31.3787 46.0297C33.222 42.3547 33.6 38.3763 32.4963 34.195H32.494ZM26.4857 46.788C25.1304 48.5099 23.479 49.9764 21.609 51.1187C21.4184 51.0504 21.2294 50.9781 21.042 50.9017L20.8903 50.841C17.4189 49.4098 14.462 46.9614 12.4087 43.8177C10.296 40.6011 9.23743 36.8064 9.37999 32.9607C9.46924 30.2119 10.1724 27.518 11.438 25.0763C12.1784 24.913 12.9251 24.8111 13.678 24.7707L13.874 24.766C14.2551 24.7582 14.6269 24.7582 14.9893 24.766C15.5198 24.7924 16.0463 24.8469 16.569 24.9293C16.7393 28.4597 17.6073 32.2677 19.1473 36.2507C20.6337 40.0867 23.1 43.6287 26.4833 46.7857L26.4857 46.788Z" fill="black"/>
</svg>
