<svg width="56" height="56" viewBox="0 0 56 56" fill="none" xmlns="http://www.w3.org/2000/svg">
<path d="M50.547 23.303L50.4817 23.135L44.1373 6.58233C44.0091 6.25576 43.7804 5.97835 43.4844 5.79006C43.1883 5.60178 42.8401 5.51235 42.49 5.53466C42.1394 5.5499 41.8028 5.67607 41.5285 5.89497C41.2542 6.11387 41.0566 6.41419 40.964 6.75266L36.68 19.88H19.3247L15.0337 6.75499C14.9422 6.41639 14.7456 6.11556 14.4722 5.89584C14.1988 5.67612 13.8627 5.54884 13.5123 5.53233C13.1622 5.51328 12.8148 5.60428 12.519 5.79258C12.2232 5.98088 11.9937 6.25703 11.8627 6.58233L5.51133 23.1583L5.446 23.3217C4.53532 25.7091 4.42376 28.3276 5.12808 30.7838C5.83239 33.2401 7.31456 35.4016 9.352 36.9437L9.37533 36.96L9.43133 37.0043L19.1077 44.247L23.891 47.8707L26.8007 50.0733C27.1416 50.3322 27.5579 50.4724 27.986 50.4724C28.4141 50.4724 28.8304 50.3322 29.1713 50.0733L32.081 47.8707L36.8643 44.247L46.599 36.96L46.6223 36.9413C48.668 35.402 50.1573 33.2388 50.8653 30.7785C51.5733 28.3181 51.4616 25.6942 50.547 23.303Z" fill="black"/>
</svg>
