<svg width="56" height="56" viewBox="0 0 56 56" fill="none" xmlns="http://www.w3.org/2000/svg">
<mask id="mask0_2051_95" style="mask-type:luminance" maskUnits="userSpaceOnUse" x="0" y="0" width="56" height="56">
<path d="M0 0H56V56H0V0Z" fill="white"/>
</mask>
<g mask="url(#mask0_2051_95)">
<path fill-rule="evenodd" clip-rule="evenodd" d="M0 0H56V56H0V0ZM42.8097 46.9467C40.2127 46.9467 38.745 45.5933 37.618 43.75L33.341 46.235C34.8857 49.287 38.0427 51.6157 42.931 51.6157C47.929 51.6157 51.6507 49.021 51.6507 44.282C51.6507 39.8883 49.126 37.9353 44.6553 36.015L43.3393 35.4527C41.0807 34.4727 40.103 33.8357 40.103 32.256C40.103 30.9797 41.083 30.002 42.623 30.002C44.1327 30.002 45.1057 30.639 46.0087 32.256L50.106 29.6263C48.3723 26.5767 45.969 25.4123 42.623 25.4123C37.9237 25.4123 34.916 28.4177 34.916 32.3657C34.916 36.6473 37.436 38.675 41.2347 40.292L42.5507 40.8567C44.9517 41.9067 46.382 42.546 46.382 44.3497C46.382 45.857 44.989 46.9467 42.8097 46.9467ZM22.4163 46.9117C20.608 46.9117 19.8543 45.675 19.0283 44.205L14.7443 46.7997C15.9857 49.427 18.4263 51.6063 22.638 51.6063C27.3023 51.6063 30.4967 49.126 30.4967 43.6777V25.711H25.235V43.6077C25.235 46.2373 24.143 46.9117 22.414 46.9117" fill="black"/>
</g>
</svg>
