<svg width="56" height="56" viewBox="0 0 56 56" fill="none" xmlns="http://www.w3.org/2000/svg">
<path d="M6.70133 56H4.42633C4.36789 55.8482 4.31343 55.6949 4.263 55.5403C3.76133 53.9863 2.877 52.0637 2.64833 50.5143C2.30767 48.2183 4.46834 48.09 5.85433 47.096C7.98933 45.556 9.66934 44.7043 11.984 43.316C12.6723 42.8983 14.742 41.86 14.973 41.3817C15.442 40.4297 14.168 39.0903 13.8297 38.3483C13.3047 37.1653 13.0247 36.162 12.9523 35C11.0297 34.6967 9.55733 33.537 8.64967 32.235C7.17967 30.0767 6.16233 26.0867 7.42467 23.051C7.52967 22.8107 8.01733 22.3393 8.08967 21.9707C8.22967 21.252 7.84467 20.2907 7.80967 19.5253C7.66967 15.5773 8.47233 12.1753 11.1347 10.9853C12.215 6.692 16.065 5.26166 19.705 3.129C21.0583 2.331 22.561 1.81766 24.115 1.246C29.6497 -0.800336 38.178 -0.415336 42.7677 3.073C44.7183 4.55 47.845 7.66966 48.965 9.93066C51.9097 15.8923 51.695 25.8557 49.6347 33.11C49.3547 34.0923 48.958 35.518 48.391 36.687C47.999 37.5037 46.7833 39.137 46.9327 39.8603C47.082 40.593 49.7093 42.5903 50.274 43.1153C51.2867 44.1 53.214 45.3903 53.3633 46.6153C53.5267 47.915 52.7847 49.7327 52.4067 50.9903C51.9003 52.6727 51.3893 54.3527 50.8807 55.9627H6.69667L6.70133 56ZM32.6107 47.74C31.0974 46.9237 29.4747 46.3288 27.7923 45.9737C25.7623 45.591 25.9723 48.7457 26.0423 50.6263C26.1123 52.1267 26.8823 53.697 27.2323 54.6957C27.4097 55.1553 27.4423 55.6523 27.8297 55.7433C28.5297 55.902 30.8397 54.9827 31.5047 54.6257C32.9047 53.8603 33.9873 52.6563 35.1773 51.8513C35.2147 51.4547 35.2147 51.058 35.2473 50.666C34.452 50.2694 33.5806 50.049 32.6923 50.0197C33.425 49.6697 34.4423 49.6697 35.1073 49.245L35.1447 48.7947C33.9873 48.7247 33.5347 48.202 32.7623 47.7773L32.6107 47.74ZM50.0033 54.5883C50.4334 53.2448 50.7956 51.8804 51.0883 50.5003C51.2283 49.8307 51.59 48.3583 51.5037 47.7563C51.366 46.6853 49.9077 45.892 49.161 45.2223C47.7983 43.9973 46.9443 42.9473 45.521 41.7947C44.94 42.6697 43.701 43.2297 43.2273 43.9273C46.6037 42.3197 47.2173 50.0523 45.8897 52.5373C46.0997 53.305 46.802 53.5873 47.089 54.2523L46.8883 54.6397H49.8983C49.9287 54.6397 49.9683 54.6397 50.001 54.6723L50.0033 54.5883ZM34.524 54.5603C34.4073 54.3877 34.2907 54.2453 34.174 54.0727L33.4717 54.5277H34.5217L34.524 54.5603ZM40.9873 54.5603C41.006 54.0727 41.0293 53.6177 41.0573 53.165C39.8207 53.2327 39.1323 52.045 38.2667 51.9353C37.5107 51.8303 36.8667 52.7777 35.8867 52.3903C35.665 52.6353 35.4597 52.92 35.224 53.1277C35.5818 53.5477 35.9116 54.0019 36.2133 54.4903H38.115C38.124 54.3108 38.2017 54.1416 38.332 54.0178C38.4623 53.894 38.6353 53.8251 38.815 53.8253C39.2 53.8253 39.4777 54.1077 39.4777 54.4553H41.0177L40.9873 54.5603ZM45.9247 54.5603C45.192 53.4427 43.715 52.465 42.0047 53.2653L41.9347 54.5277H45.9247V54.5603ZM26.068 54.5603L25.8253 53.7577C25.3003 52.0777 24.9853 50.8177 24.8803 49.8377C22.7477 48.8203 20.5053 47.8077 18.6877 46.5103C18.3377 46.2653 16.1 43.3603 15.8177 43.4653C11.76 45.0427 7.98 47.8053 4.585 50.428C5.18233 51.7277 5.705 53.0903 6.195 54.488H26.04L26.068 54.5603ZM45.353 49.63C45.2853 48.4353 44.9703 45.99 44.233 45.57C42.693 44.66 39.9257 47.39 38.773 47.7703C38.878 48.1203 39.088 48.4027 39.123 48.8903C39.788 48.7177 40.628 48.8227 41.2183 49.105C40.5207 49.175 39.7507 49.175 39.2957 49.4877C39.123 49.9427 39.333 50.6077 39.228 51.2703C40.838 51.73 42.728 51.9773 44.793 52.045C45.1757 51.5153 45.318 50.54 45.2853 49.5203L45.353 49.63ZM35.833 48.79C35.7303 49.665 35.9403 49.98 36.113 50.9903C39.053 51.9027 38.5257 46.9303 35.798 48.7527L35.833 48.79ZM20.44 45.5C19.39 46.5663 23.4033 48.0247 24.6727 48.1017C24.6727 47.425 25.0577 46.7857 24.9877 46.305C23.471 46.0297 21.483 46.207 20.4493 45.4953L20.44 45.5ZM33.425 46.0017C33.425 46.102 33.2827 46.0717 33.2663 46.151C34.6197 47.2033 35.6323 47.4227 37.471 47.341C38.297 46.7297 39.0343 46.0273 39.9047 45.458C37.9097 45.6307 35.399 46.8743 33.432 45.9947L33.425 46.0017ZM41.405 4.641C37.6577 2.527 31.255 0.928664 27.2277 2.93533C24.0077 4.55 19.5977 7.22866 18.13 10.6167C19.53 13.888 17.7427 16.884 17.6027 20.2043C17.5607 21.9707 18.4427 23.5177 18.515 25.4357C18.0483 26.2243 16.59 26.3223 15.575 26.2663C15.2343 24.5653 14.6417 22.652 12.88 22.463C10.3973 22.1923 8.575 24.2457 8.47 26.39C8.33 28.91 10.4137 33.0727 13.335 32.795C14.4737 32.6877 14.7537 31.535 15.9927 31.535C16.6577 32.865 14.9543 33.285 14.7723 34.2277C14.735 34.4727 14.9123 35.42 15.015 35.8727C15.5587 38.0753 16.751 40.9127 17.92 42.5927C19.4017 44.6927 22.316 45.045 25.4543 45.255C26.0143 44.03 28.0793 44.135 29.435 44.4477C27.8227 43.8177 26.3177 42.2427 25.06 40.88C23.625 39.3027 22.19 37.59 22.1177 35.56C24.8127 39.3027 27.0177 42.56 31.9177 44.2027C35.6277 45.4277 39.9677 43.61 42.8003 41.615C43.9903 40.7773 44.6927 39.445 45.5303 38.2573C48.6803 33.74 50.1503 27.2673 49.8377 21.0047C49.6977 18.4123 49.6977 15.8223 48.8203 14.1097C47.9127 12.2873 44.8653 10.6773 43.0453 12.2873C42.6953 10.5047 44.5153 9.41733 46.6503 10.0473C45.1103 8.05466 43.533 5.712 41.363 4.48466L41.405 4.641ZM31.6867 34.7573C33.1217 38.36 38.0427 37.9377 42.1983 37.8443C42.0023 38.297 41.601 38.8593 41.1133 39.046C39.7833 39.5873 36.1083 39.998 34.2603 39.018C33.0797 38.388 32.3377 36.981 31.689 36.155C31.3693 35.7537 29.834 34.7363 31.661 34.734L31.6867 34.7573ZM32.0693 32.7273C34.153 33.81 37.9493 33.9337 40.775 33.8473C40.929 34.4703 40.929 35.231 40.9337 35.9777C37.317 36.1643 33.033 35.2683 32.081 32.7227H32.0693V32.7273ZM47.6443 31.36C46.5407 33.46 44.9727 35.7863 41.72 35.8587C41.6663 35.196 41.615 34.1437 41.72 33.7493C44.2027 33.509 45.7497 32.242 47.6537 31.3763L47.6443 31.36ZM46.13 29.8037C43.75 31.3437 41.104 33.012 37.2073 32.627C36.3883 31.9037 36.0757 30.2937 36.8807 29.225C37.303 29.9553 37.0207 31.29 38.2107 31.4883C40.4133 31.8733 42.966 30.1373 44.5807 29.5283C45.5607 27.8647 44.4733 27.251 43.6007 26.1847C41.776 24.0147 39.3307 21.2847 39.396 17.9947C40.1287 17.472 40.2033 18.802 40.3083 19.0447C41.251 21.2847 43.631 24.1197 45.381 26.0447C45.801 26.5347 46.501 26.9547 46.571 27.2673C46.7857 28.1773 45.9783 29.26 46.0833 29.8573L46.13 29.8037ZM14.7723 28.2287C14.0397 27.7993 13.8553 25.9187 12.9803 25.872C11.732 25.802 11.9583 28.322 11.963 29.792C11.0997 29.022 10.948 26.607 11.5803 25.382C10.8617 25.032 10.542 25.7647 10.1383 26.0447C10.6517 22.3347 15.5983 24.332 14.7817 28.2847L14.7723 28.2287ZM10.997 13.9883C9.39867 15.7523 9.737 19.061 9.926 21.427C12.8287 19.5953 16.688 21.567 16.653 24.6797C18.0413 24.6423 17.1733 22.9437 16.9213 21.8447C16.0977 18.2793 18.3027 14.4083 17.017 11.1347C14.5343 11.3307 12.4927 12.348 11.0017 13.9697L10.997 13.9883ZM32.277 16.5853C32.9933 17.8967 33.2197 19.264 34.237 20.2487C34.692 20.692 35.5763 21.238 35.14 22.4653C35.035 22.7477 34.2883 23.3777 33.8543 23.5153C32.2817 23.9703 28.595 23.5853 29.8387 21.6253C31.1523 21.6603 32.9047 22.4653 33.88 21.5203C33.1473 20.2977 31.815 17.9503 32.3073 16.5503L32.277 16.5853ZM46.739 16.555H46.8977C47.6677 18.1137 48.2977 19.7633 49.2403 21.14C48.6103 22.6053 44.45 23.9167 44.52 21.273C45.43 20.8763 46.97 21.1913 47.775 20.6897C47.3247 19.3923 46.655 18.3423 46.7623 16.5573L46.739 16.555ZM30.576 12.782C27.258 12.012 25.6037 14.1633 24.6027 16.4057C23.7067 16.1863 24.0637 14.9707 24.2877 14.3453C24.8827 12.7097 27.2743 10.535 29.232 10.8313C30.0697 10.9643 31.2107 11.732 30.576 12.7773V12.782ZM22.498 3.717C18.858 4.74366 14.1913 7.38966 12.698 10.6563C13.853 10.493 14.658 9.90733 15.8013 9.83733C16.2353 9.8 16.8 10.01 17.297 9.87233C18.2863 9.62966 19.117 7.38733 19.8683 6.58233C20.5917 5.77733 21.4667 5.425 22.0617 4.69233C22.4513 4.48233 23.016 4.51966 23.0417 3.92233C22.8713 3.74733 22.6917 3.60733 22.5003 3.67733L22.498 3.717Z" fill="black"/>
</svg>
