<svg width="56" height="56" viewBox="0 0 56 56" fill="none" xmlns="http://www.w3.org/2000/svg">
<path d="M26.9033 4.66666C26.9033 10.2667 31.5 14.8167 37.0533 14.8167H41.2067V18.7833C41.2067 24.3833 45.7333 28.91 51.3333 28.9333V6.62666C51.3333 6.10684 51.1268 5.60831 50.7592 5.24073C50.3917 4.87316 49.8931 4.66666 49.3733 4.66666H26.9033ZM15.7967 15.8667C15.8089 18.5486 16.8798 21.1173 18.7762 23.0137C20.6727 24.9102 23.2413 25.9811 25.9233 25.9933H30.1233V30.0067C30.1356 32.6886 31.2065 35.2573 33.1029 37.1537C34.9994 39.0502 37.568 40.1211 40.25 40.1333V17.8033C40.2439 17.2916 40.0379 16.8025 39.6761 16.4406C39.3142 16.0787 38.8251 15.8727 38.3133 15.8667H15.7967ZM4.66666 27.0667C4.66666 32.6667 9.21666 37.1933 14.8167 37.1933H18.97V41.2067C18.9933 46.7833 23.52 51.3333 29.0967 51.3333V29.0033C29.0967 28.4835 28.8902 27.985 28.5226 27.6174C28.155 27.2498 27.6565 27.0433 27.1367 27.0433L4.66666 27.0667Z" fill="black"/>
</svg>
