<svg width="56" height="56" viewBox="0 0 56 56" fill="none" xmlns="http://www.w3.org/2000/svg">
<path d="M32.55 31.5H32.0133C31.5933 31.7567 31.4067 32.2467 31.5933 32.6667L33.6 37.59C35.5367 36.3533 37.0067 34.51 37.7767 32.34L32.5733 31.5H32.55ZM24.5 32.1767C24.44 31.9862 24.3226 31.819 24.1639 31.6978C24.0051 31.5767 23.8128 31.5076 23.6133 31.5H23.4267L18.2467 32.3633C19.0167 34.51 20.4867 36.33 22.4233 37.5667L24.4067 32.7367V32.6667C24.5 32.55 24.5 32.34 24.5 32.1767ZM28.77 34.0667C28.6568 33.8643 28.4688 33.7144 28.2464 33.6489C28.0239 33.5835 27.7847 33.6078 27.58 33.7167C27.4167 33.8333 27.3 33.9033 27.23 34.0667H27.2067L24.6633 38.6633C26.4833 39.27 28.4433 39.3867 30.3333 38.9433C30.66 38.8733 31.01 38.78 31.3367 38.6633L28.7933 34.0667H28.77ZM36.82 23.4033L32.9 26.8333L32.9233 26.9033C32.8344 26.9773 32.7613 27.0685 32.7083 27.1713C32.6553 27.2741 32.6235 27.3865 32.6148 27.5019C32.6061 27.6173 32.6206 27.7332 32.6576 27.8428C32.6946 27.9524 32.7532 28.0535 32.83 28.14C32.9467 28.28 33.0867 28.3733 33.25 28.42L33.2733 28.4433L38.3367 29.89C38.5 27.6267 38.01 25.34 36.82 23.4033ZM29.5633 23.7767C29.5867 24.2667 29.9833 24.64 30.4733 24.6167C30.66 24.6167 30.8233 24.57 30.9633 24.5H30.9867L35.2567 21.4433C33.6296 19.8468 31.5223 18.83 29.26 18.55L29.5633 23.7767ZM25.0367 24.5C25.4333 24.7567 25.97 24.6867 26.25 24.29C26.3667 24.15 26.4133 23.9867 26.4367 23.8H26.46L26.74 18.55C26.39 18.5967 26.04 18.6667 25.6667 18.7367C23.8 19.1567 22.0733 20.09 20.72 21.4433L25.0133 24.5H25.0367ZM22.7267 28.4433C23.1933 28.3267 23.4733 27.8367 23.3333 27.37C23.3333 27.1833 23.2167 27.0433 23.0767 26.9267V26.9033L19.1567 23.3333C17.9433 25.34 17.43 27.6267 17.6867 29.9133L22.7267 28.4667V28.4433ZM26.5533 29.9833L28 30.6833L29.4467 29.9833L29.7967 28.42L28.7933 27.1833H27.1833L26.18 28.42L26.5533 29.9833ZM51.9633 33.0633L47.8333 15.1667C47.6233 14.1867 46.97 13.3933 46.1067 12.9733L29.3767 4.97C28.5133 4.57333 27.4867 4.57333 26.6 4.97L9.89332 12.9733C9.02999 13.3933 8.37666 14.1867 8.16666 15.1667L4.03666 33.0633C3.91999 33.53 3.91999 33.9967 4.03666 34.44C4.05999 34.58 4.10666 34.72 4.15332 34.86C4.22332 35.07 4.33999 35.3033 4.45666 35.49C4.52666 35.5833 4.57332 35.6767 4.66666 35.7467L16.2167 50.1667C16.2633 50.1667 16.3333 50.26 16.3333 50.3067C16.5667 50.5167 16.7767 50.68 16.9867 50.82C17.2667 51.0067 17.5933 51.1467 17.92 51.2167C18.1767 51.3333 18.4567 51.3333 18.6667 51.3333H37.6133C37.7767 51.3333 37.94 51.2633 38.08 51.2167C38.1967 51.1933 38.3133 51.1467 38.4067 51.1233C38.5 51.0767 38.57 51.0533 38.6633 51.0067C38.78 50.96 38.8967 50.89 39.0133 50.82C39.2933 50.6333 39.55 50.4 39.7833 50.1667L40.1333 49.7L51.3333 35.7467C51.5667 35.4667 51.73 35.1633 51.8467 34.86C51.8933 34.72 51.94 34.58 51.9633 34.44C52.08 33.9967 52.08 33.5067 51.9633 33.0633ZM34.6267 40.04C34.6733 40.18 34.72 40.32 34.79 40.4367C34.6967 40.6233 34.65 40.8333 34.72 41.0433C35 41.6033 35.2567 42.1167 35.6067 42.63C35.7933 42.8867 35.98 43.1667 36.1667 43.4233C36.1667 43.4933 36.2367 43.61 36.26 43.7033C36.54 44.17 36.4 44.7767 35.91 45.08C35.42 45.3833 34.8133 45.1967 34.5333 44.73C34.51 44.66 34.4867 44.6133 34.4633 44.5433C34.4167 44.4733 34.37 44.3333 34.3233 44.3333C34.2067 43.9833 34.1133 43.68 34.0433 43.3767C33.8333 42.7933 33.6467 42.2333 33.3433 41.6967C33.222 41.5351 33.0491 41.4199 32.8533 41.37L32.6667 40.9967C29.6567 42.1167 26.3667 42.1167 23.4033 40.9733L23.17 41.3933C23.0067 41.4167 22.8433 41.4867 22.7267 41.6033C22.4 42.1633 22.1667 42.7467 21.9567 43.4C21.8867 43.7033 21.7933 44.0067 21.6767 44.3333C21.63 44.3333 21.5833 44.4967 21.5367 44.5667C21.4469 44.8173 21.2613 45.022 21.0206 45.1358C20.78 45.2496 20.504 45.2631 20.2533 45.1733C20.0027 45.0836 19.798 44.898 19.6842 44.6573C19.5704 44.4166 19.5569 44.1406 19.6467 43.89C19.67 43.82 19.7167 43.7733 19.74 43.7033C19.8333 43.6333 19.8333 43.5167 19.8333 43.4467C20.0433 43.1667 20.2067 42.91 20.3933 42.63C20.7667 42.14 21.07 41.58 21.3033 41.02C21.3263 40.8228 21.3023 40.6229 21.2333 40.4367L21.3967 40.0167C18.6624 38.3945 16.6133 35.8311 15.6333 32.8067L15.1667 32.8767C15.0144 32.7518 14.8266 32.6783 14.63 32.6667C14 32.7833 13.44 32.97 12.8333 33.18C12.5767 33.32 12.2733 33.4367 11.97 33.53C11.9 33.5533 11.8067 33.5767 11.6667 33.6C11.4159 33.6755 11.1458 33.6523 10.9116 33.5352C10.6773 33.4181 10.4967 33.2159 10.4067 32.97C10.2433 32.4333 10.5 31.8733 11.06 31.6867C11.1067 31.6867 11.1767 31.6633 11.2467 31.6633V31.64H11.27L11.5267 31.5933C11.8533 31.5 12.18 31.5 12.4833 31.5C13.09 31.5 13.6967 31.36 14.28 31.22C14.4667 31.1033 14.6067 30.9633 14.7233 30.7767L15.1667 30.66C14.6767 27.4867 15.4 24.29 17.1733 21.63L16.8467 21.35C16.8467 21.14 16.7767 20.93 16.66 20.7667C16.1933 20.37 15.7033 20.02 15.1667 19.7167C14.8867 19.5767 14.6067 19.4133 14.3267 19.2267C14.28 19.18 14.1867 19.11 14.14 19.0633L14.1167 19.04C13.65 18.6667 13.5333 18.06 13.86 17.57C14.07 17.3367 14.35 17.22 14.6767 17.22C14.9333 17.2433 15.1667 17.3367 15.3767 17.5L15.5867 17.6633C15.82 17.8733 16.03 18.13 16.24 18.3633C16.66 18.8067 17.1033 19.2267 17.5933 19.5767C17.78 19.67 17.99 19.6933 18.2 19.6467L18.55 19.9033C20.3 18.0367 22.5867 16.73 25.0833 16.17C25.6667 16.03 26.2967 15.9367 26.9033 15.89L26.9267 15.47C27.0878 15.3286 27.2018 15.1414 27.2533 14.9333C27.2767 14.3267 27.23 13.72 27.1367 13.1367C27.0667 12.8333 27.02 12.5067 26.9967 12.18V11.9C26.95 11.34 27.3467 10.85 27.9067 10.78C28.4667 10.71 28.9333 11.13 29.0033 11.6667V12.18C28.98 12.5067 28.9333 12.8333 28.8633 13.1367C28.77 13.72 28.7233 14.3267 28.7467 14.9333C28.7933 15.1667 28.91 15.33 29.0733 15.4467L29.0967 15.89C32.27 16.17 35.21 17.5933 37.4033 19.9033L37.7767 19.6233C37.9867 19.67 38.1967 19.6467 38.3833 19.5533C38.8733 19.2033 39.34 18.7833 39.7367 18.34C39.9467 18.1067 40.1567 17.8733 40.39 17.64C40.46 17.5933 40.5533 17.5 40.6233 17.5C41.02 17.08 41.65 17.08 42 17.5C42.4433 17.8733 42.42 18.5033 42 18.9C42 18.9467 41.93 18.9933 41.86 19.04C41.5415 19.293 41.1974 19.5119 40.8333 19.6933C40.2967 19.9967 39.7833 20.3467 39.34 20.7433C39.2 20.9067 39.13 21.0933 39.1533 21.3033L38.78 21.63C40.5714 24.2678 41.3044 27.4831 40.8333 30.6367L41.2767 30.7533C41.37 30.94 41.5333 31.08 41.72 31.1733C42.3033 31.3367 42.91 31.43 43.5167 31.5H44.4733C44.5433 31.57 44.66 31.5933 44.7533 31.6167C45.3133 31.6867 45.6867 32.2 45.6167 32.76C45.5 33.2967 45.0567 33.6933 44.4967 33.6233C44.4267 33.6 44.3333 33.6 44.3333 33.5767V33.5533C44.1933 33.5533 44.1 33.53 44.0067 33.5067C43.7033 33.4133 43.4233 33.2967 43.1667 33.1567C42.56 32.9233 42 32.76 41.37 32.6667C41.16 32.6667 40.9733 32.6667 40.8333 32.8533C40.67 32.83 40.53 32.8067 40.39 32.7833C39.4333 35.84 37.3333 38.4067 34.6267 40.04Z" fill="black"/>
</svg>
