<svg width="56" height="56" viewBox="0 0 56 56" fill="none" xmlns="http://www.w3.org/2000/svg">
<path d="M38.2783 12.8357C38.01 12.8357 37.828 12.8683 37.639 12.9127V12.943H37.6717C37.7977 13.1857 38.0123 13.363 38.171 13.58C38.297 13.8297 38.4043 14.0793 38.5303 14.3267L38.563 14.2917C38.7823 14.1377 38.8897 13.8903 38.8897 13.5147C38.7963 13.405 38.7823 13.2953 38.703 13.188C38.6097 13.0317 38.409 12.9547 38.283 12.831L38.2783 12.8357ZM13.4633 43.6217H11.3003C11.2391 40.1842 11.0289 36.751 10.6703 33.3317H10.6517L7.36167 43.6217H5.71667L2.45 33.3317H2.42667C2.1713 36.7563 2.01957 40.1879 1.97167 43.6217H0C0.129111 39.0328 0.448 34.7317 0.956667 30.7183H3.64L6.755 40.201H6.77367L9.91667 30.7183H12.4717C13.0363 35.4223 13.3692 39.7234 13.4703 43.6217H13.4633ZM22.8363 34.1017C21.9543 38.8757 20.7939 42.3446 19.355 44.5083C18.2303 46.179 16.9991 47.0136 15.6613 47.012C15.3067 47.012 14.8664 46.9047 14.3407 46.69V45.5373C14.5989 45.5778 14.8991 45.598 15.2413 45.598C15.8667 45.598 16.3699 45.4253 16.751 45.08C17.2099 44.66 17.4393 44.1894 17.4393 43.6683C17.4393 43.3059 17.2604 42.5717 16.9027 41.4657L14.5367 34.1017H16.66L18.3563 39.6083C18.7406 40.859 18.9 41.7324 18.8347 42.2287C19.768 39.7429 20.4174 37.0339 20.783 34.1017H22.8363ZM51.5947 43.6217H45.458V30.7183H47.523V42.035H51.5947V43.6217ZM43.848 43.9367L41.4773 42.77C41.6889 42.5942 41.8872 42.3998 42.0723 42.1867C43.0819 41.0044 43.5859 39.2521 43.5843 36.9297C43.5843 32.6597 41.9082 30.5239 38.556 30.5223C36.9133 30.5223 35.63 31.0644 34.706 32.1487C33.7011 33.334 33.1987 35.0801 33.1987 37.387C33.1971 39.6566 33.6436 41.321 34.538 42.3803C35.3531 43.337 36.5843 43.8153 38.2317 43.8153C38.8477 43.8153 39.4116 43.7391 39.9233 43.5867L43.015 45.388L43.855 43.9367H43.848ZM36.1667 41.0387C35.6424 40.1971 35.3803 38.8469 35.3803 36.988C35.3803 33.7369 36.3681 32.1113 38.3437 32.1113C39.3797 32.1113 40.1396 32.5002 40.6233 33.278C41.146 34.1227 41.4073 35.4628 41.4073 37.2983C41.4073 40.5759 40.4196 42.2154 38.444 42.217C37.4064 42.217 36.6458 41.8281 36.162 41.0503L36.1667 41.0387ZM32.298 40.047C32.298 41.1452 31.8967 42.0443 31.094 42.7443C30.2944 43.4443 29.218 43.7943 27.8647 43.7943C26.5977 43.7943 25.382 43.393 24.1943 42.5927L24.7473 41.482C25.7678 41.9938 26.6933 42.2489 27.524 42.2473C28.2987 42.2473 28.9077 42.0762 29.351 41.734C29.5731 41.5675 29.7525 41.3505 29.8742 41.101C29.9959 40.8515 30.0565 40.5766 30.051 40.299C30.051 39.529 29.5143 38.8757 28.539 38.3273C27.6337 37.8303 25.8253 36.7943 25.8253 36.7943C24.8407 36.078 24.3507 35.3103 24.3507 34.048C24.3507 32.9996 24.7162 32.1557 25.4473 31.5163C26.18 30.8692 27.1289 30.5464 28.294 30.548C29.4902 30.548 30.5791 30.8669 31.5607 31.5047L31.0637 32.6153C30.2811 32.2697 29.4364 32.0871 28.581 32.0787C27.9199 32.0787 27.4112 32.2389 27.055 32.5593C26.8756 32.709 26.731 32.8958 26.631 33.1069C26.5311 33.3181 26.4783 33.5484 26.4763 33.782C26.4763 34.5473 27.0223 35.2053 28.0303 35.7653C28.9473 36.267 30.8 37.3287 30.8 37.3287C31.8103 38.0403 32.312 38.7987 32.312 40.054L32.298 40.047ZM54.1893 26.3923C52.941 26.3597 51.9727 26.4857 51.163 26.831C50.9297 26.9243 50.5563 26.9243 50.5237 27.2207C50.652 27.3443 50.6707 27.5473 50.7803 27.72C50.967 28.0327 51.289 28.4503 51.5877 28.6697C51.9112 28.9294 52.2433 29.1706 52.584 29.393C53.1907 29.7663 53.879 29.988 54.474 30.3637C54.8123 30.583 55.1577 30.8607 55.5007 31.094C55.671 31.2107 55.7807 31.4207 56 31.4953V31.4487C55.8927 31.3087 55.86 31.1057 55.755 30.9493C55.5987 30.793 55.4423 30.653 55.2883 30.499C54.8308 29.8947 54.284 29.3637 53.6667 28.924C53.1673 28.5833 52.0753 28.1073 51.87 27.5357L51.8397 27.503C52.1803 27.4727 52.5863 27.349 52.913 27.2557C53.4427 27.1157 53.928 27.146 54.4763 27.0083C54.7252 26.943 54.9741 26.8699 55.223 26.789V26.649C54.943 26.369 54.733 25.9887 54.4437 25.7273C53.6353 25.0224 52.7741 24.3804 51.8677 23.807C51.3777 23.4943 50.757 23.2937 50.2413 23.0277C50.0547 22.9343 49.742 22.8877 49.6347 22.7313C49.3547 22.3907 49.1913 21.938 48.993 21.532C48.5354 20.6429 48.1097 19.7378 47.7167 18.8183C47.4367 18.207 47.2663 17.598 46.9233 17.038C45.3133 14.385 43.5703 12.7773 40.8893 11.2047C40.313 10.878 39.6223 10.738 38.892 10.5653C38.5023 10.5467 38.1127 10.5187 37.7253 10.5023C37.4687 10.3927 37.2213 10.0963 37.002 9.954C36.1153 9.394 33.8193 8.18067 33.166 9.786C32.746 10.7987 33.789 11.7973 34.1507 12.3107C34.419 12.6677 34.7573 13.076 34.944 13.4773C35.0537 13.748 35.084 14.0257 35.1937 14.308C35.441 14.994 35.6767 15.7593 36.0033 16.401C36.1737 16.7277 36.3603 17.0707 36.5797 17.3647C36.7057 17.535 36.9203 17.6143 36.9693 17.8943C36.75 18.2117 36.736 18.6737 36.61 19.061C36.05 20.8273 36.2693 23.0113 37.0627 24.311C37.3123 24.6983 37.9073 25.557 38.703 25.228C39.403 24.948 39.249 24.0613 39.4497 23.2797C39.4963 23.093 39.466 22.9693 39.5617 22.8433V22.8783C39.781 23.317 40.0003 23.7347 40.201 24.1733C40.6817 24.9387 41.5217 25.732 42.224 26.2617C42.5973 26.5417 42.8937 27.027 43.3603 27.1997V27.153H43.3253C43.225 27.0177 43.092 26.9523 42.966 26.8427C42.6705 26.5527 42.3975 26.2407 42.1493 25.9093C41.4939 25.0097 40.9111 24.0594 40.4063 23.0673C40.1497 22.5773 39.935 22.05 39.7297 21.567C39.6363 21.3803 39.6363 21.1003 39.48 21.007C39.2467 21.3477 38.9037 21.644 38.7333 22.064C38.437 22.736 38.4067 23.562 38.2947 24.4207C38.2317 24.437 38.262 24.4207 38.2317 24.4533C37.7323 24.332 37.562 23.814 37.3753 23.38C36.9087 22.2717 36.8317 20.4913 37.2353 19.215C37.345 18.8883 37.8117 17.857 37.625 17.5443C37.527 17.248 37.219 17.0777 37.0487 16.8373C36.8298 16.5244 36.6423 16.1906 36.4887 15.841C36.1153 14.9683 35.9287 14.0023 35.5227 13.1297C35.336 12.726 35.0093 12.3037 34.7433 11.9327C34.447 11.5127 34.1203 11.2163 33.8847 10.7193C33.8077 10.549 33.698 10.2667 33.8217 10.08C33.8543 9.954 33.9197 9.905 34.041 9.87C34.2463 9.702 34.8227 9.92133 35.0257 10.0147C35.602 10.248 36.0873 10.4673 36.5703 10.794C36.7897 10.948 37.0253 11.2443 37.3053 11.3213H37.632C38.1313 11.431 38.6937 11.354 39.1603 11.4917C39.9887 11.7577 40.7353 12.145 41.405 12.565C43.4687 13.8829 45.1471 15.7231 46.27 17.899C46.4567 18.2583 46.5383 18.5873 46.7087 18.9607C47.0353 19.7307 47.439 20.5077 47.7703 21.252C48.097 21.987 48.412 22.736 48.881 23.345C49.1143 23.6717 50.0523 23.842 50.4723 24.0123C50.7827 24.1523 51.2657 24.2807 51.5457 24.451C52.0823 24.7777 52.605 25.151 53.109 25.5103C53.3657 25.6877 54.1427 26.0773 54.1893 26.3923Z" fill="black"/>
</svg>
