<svg width="56" height="56" viewBox="0 0 56 56" fill="none" xmlns="http://www.w3.org/2000/svg">
<path d="M28 55.8973C27.202 55.8973 26.46 55.6897 25.767 55.3303L18.6993 51.275C17.6377 50.7103 18.1697 50.505 18.4893 50.4023C19.922 49.9403 20.188 49.8377 21.6767 49.014C21.8353 48.9113 22.05 48.9627 22.2087 49.0653L27.629 52.199C27.839 52.3017 28.1073 52.3017 28.266 52.199L49.469 40.3363C49.679 40.2337 49.7863 40.0283 49.7863 39.7717V16.0977C49.7863 15.841 49.6813 15.6357 49.469 15.533L28.266 3.724C28.0537 3.62133 27.7877 3.62133 27.629 3.724L6.42601 15.533C6.21368 15.6357 6.10634 15.8923 6.10634 16.0977V39.7717C6.10634 39.977 6.21368 40.2337 6.42601 40.3363L12.2173 43.5727C15.3533 45.1127 17.318 43.316 17.318 41.5193V18.1533C17.318 17.8453 17.584 17.5373 17.9573 17.5373H20.6663C20.986 17.5373 21.3033 17.794 21.3033 18.1533V41.517C21.3033 45.5747 19.019 47.936 15.0337 47.936C13.811 47.936 12.8543 47.936 10.1453 46.6527L4.56634 43.5727C3.89455 43.2024 3.33355 42.6599 2.94108 42.0008C2.5486 41.3418 2.33883 40.59 2.33334 39.823V16.149C2.33334 14.609 3.18268 13.1717 4.56634 12.4017L25.7693 0.536668C26.4599 0.183589 27.2244 -0.000520706 28 -0.000520706C28.7756 -0.000520706 29.5401 0.183589 30.2307 0.536668L51.436 12.3993C52.8173 13.1693 53.6667 14.6067 53.6667 16.1467V39.8207C53.6667 41.3607 52.8173 42.798 51.436 43.5703L30.233 55.4307C29.5282 55.7362 28.7682 55.8934 28 55.8927M34.5357 39.613C25.2373 39.613 23.324 35.5063 23.324 32.0133C23.324 31.7053 23.59 31.3973 23.961 31.3973H26.7237C27.0433 31.3973 27.307 31.6027 27.307 31.9107C27.734 34.6313 28.9567 35.966 34.5893 35.966C39.053 35.966 40.9663 34.9907 40.9663 32.6807C40.9663 31.346 40.4343 30.3707 33.474 29.7033C27.6803 29.1363 24.0683 27.9067 24.0683 23.4383C24.0683 19.278 27.6803 16.8117 33.74 16.8117C40.5417 16.8117 43.89 19.0727 44.3147 24.003C44.3095 24.1698 44.2533 24.3311 44.1537 24.465C44.0487 24.5677 43.89 24.6703 43.729 24.6703H40.9663C40.8321 24.6671 40.7026 24.6202 40.5974 24.5369C40.4922 24.4536 40.4169 24.3382 40.383 24.2083C39.7437 21.385 38.0963 20.4587 33.74 20.4587C28.8493 20.4587 28.266 22.1013 28.266 23.3357C28.266 24.8243 28.9567 25.2863 35.546 26.1077C42.0817 26.929 45.164 28.1097 45.164 32.5243C45.1103 37.0463 41.286 39.613 34.5357 39.613Z" fill="black"/>
</svg>
