<svg width="56" height="56" viewBox="0 0 56 56" fill="none" xmlns="http://www.w3.org/2000/svg">
<path d="M8.48631 8.01269L28.8796 28.0117L8.63798 48.195C8.30682 47.7637 8.04975 47.2804 7.87731 46.7647C7.78813 46.1808 7.78813 45.5869 7.87731 45.003V10.6564C7.81664 9.73469 8.02898 8.81302 8.48398 8.01269M37.6646 19.2897L31.0076 25.8837L10.857 6.06669C11.5103 5.84035 12.2103 5.77735 12.894 5.88469C13.9673 6.17869 14.9916 6.63135 15.932 7.22169L34.1693 17.3134C35.3546 17.9504 36.5096 18.62 37.6646 19.2897ZM31.01 30.17L37.6343 36.6754L32.8323 39.3494L18.1813 47.4927C16.968 48.1624 15.75 48.8017 14.5646 49.532C14.0574 49.8478 13.4887 50.0517 12.8964 50.1302C12.3041 50.2086 11.7019 50.1598 11.13 49.987L31.01 30.17ZM48.1833 28.0117C48.2003 28.8276 47.9942 29.6327 47.587 30.34C47.1799 31.0472 46.5874 31.6299 45.8733 32.025L40.3993 35.063L33.1963 28.0117L40.4296 20.839C42.2846 21.8727 44.1093 22.9064 45.9316 23.8794C46.6584 24.2856 47.2554 24.8892 47.6534 25.6205C48.0515 26.3518 48.2367 27.1808 48.1833 28.0117Z" fill="black"/>
</svg>
