<svg width="56" height="56" viewBox="0 0 56 56" fill="none" xmlns="http://www.w3.org/2000/svg">
<path d="M46.466 13.7387C38.5933 3.542 23.94 1.65667 13.7387 9.534C3.54199 17.4067 1.65665 32.06 9.53399 42.2613C17.409 52.458 32.0623 54.3433 42.2613 46.466L42.266 46.4613C52.4603 38.584 54.341 23.9353 46.466 13.7387ZM40.495 19.5603L38.675 17.7683L38.2807 17.3763L38.3903 17.2667L41.153 14.658C41.6477 15.2577 41.9183 16.0113 41.9183 16.793C41.916 17.703 41.552 18.578 40.9057 19.222C40.7765 19.3464 40.6397 19.4592 40.495 19.5603ZM15.6287 39.0553L15.953 39.3587L17.6447 41.0503L13.8787 40.8053L15.6287 39.0553ZM38.4767 13.37C39.235 13.3747 39.9723 13.6267 40.5767 14.0887L37.5433 17.1407C37.4983 17.1769 37.4637 17.2244 37.443 17.2783L37.4407 17.29L37.436 17.304C37.419 17.3624 37.4199 17.4245 37.4386 17.4823C37.4573 17.5401 37.493 17.591 37.541 17.6283L39.837 19.922C39.2091 20.195 38.5134 20.2725 37.8408 20.1443C37.1682 20.0161 36.5498 19.6882 36.0663 19.2033C35.5918 18.7243 35.269 18.116 35.1382 17.4544C35.0075 16.7929 35.0747 16.1076 35.3313 15.484C35.5873 14.8598 36.0229 14.3256 36.5829 13.9493C37.1429 13.5729 37.802 13.3713 38.4767 13.37ZM36.3557 20.9907C36.3514 21.139 36.3165 21.2848 36.253 21.419C36.1896 21.5531 36.099 21.6726 35.987 21.77L26.8987 29.6777L26.8683 29.7033L26.537 29.372L26.3923 29.2273L26.3223 29.1573L26.1193 28.9543L26.0423 28.8773L25.886 28.721L34.489 20.195C34.6644 20.016 34.8969 19.904 35.1462 19.8784C35.3955 19.8528 35.6459 19.9153 35.854 20.055C35.9159 20.0961 35.9737 20.1429 36.0267 20.195L36.113 20.2837C36.1877 20.3957 36.2522 20.5123 36.3067 20.6337C36.3424 20.7503 36.3588 20.8693 36.3557 20.9907ZM25.8603 29.7173L25.8767 29.7617L25.956 29.8387L26.2967 30.1723L26.1707 30.1887L24.283 30.4197L24.5163 30.1863L25.4287 29.2763L25.8603 29.7173ZM35.0303 19.2197C34.6412 19.271 34.2802 19.4498 34.0037 19.7283L25.4287 28.2637L23.7487 26.5837C28.1937 22.155 30.912 19.845 32.6037 19.0867C32.972 18.8545 33.4034 18.7426 33.8382 18.7665C34.2729 18.7903 34.6895 18.9487 35.0303 19.2197ZM23.2517 27.0783L23.2867 27.1133L24.675 28.5017L21.0537 29.2763L23.2517 27.0783ZM18.508 38.4137C18.3946 38.4668 18.3034 38.558 18.2501 38.6713C18.1968 38.7847 18.1849 38.9131 18.2163 39.0343L18.6037 40.726C18.6183 40.746 18.6261 40.7701 18.6261 40.7948C18.6261 40.8196 18.6183 40.8437 18.6037 40.8637C18.5824 40.8824 18.555 40.8927 18.5267 40.8927C18.4983 40.8927 18.4709 40.8824 18.4497 40.8637L16.1537 38.549L23.2237 31.374L26.8847 30.807L28.2287 32.151C25.2536 34.624 21.9895 36.7269 18.508 38.4137ZM28.8703 31.647L27.4517 30.2283L36.386 22.393C35.7513 24.913 32.382 28.329 28.8703 31.647ZM41.1787 16.3637C41.142 16.302 41.0839 16.256 41.0154 16.2345C40.947 16.213 40.873 16.2174 40.8077 16.247C40.7757 16.2635 40.7474 16.2861 40.7243 16.3136C40.7011 16.3411 40.6836 16.3729 40.6728 16.4071C40.662 16.4414 40.658 16.4774 40.6611 16.5132C40.6642 16.549 40.6744 16.5838 40.691 16.6157C40.758 16.7564 40.7845 16.913 40.7677 17.0679C40.7508 17.2229 40.6911 17.37 40.5953 17.493C40.5705 17.5165 40.5511 17.5453 40.5386 17.5771C40.5261 17.609 40.5208 17.6432 40.523 17.6773C40.523 17.7489 40.5463 17.8103 40.593 17.8617C40.6435 17.8796 40.6988 17.8796 40.7493 17.8617C40.7947 17.8733 40.8424 17.8722 40.8872 17.8586C40.9321 17.8451 40.9723 17.8195 41.0037 17.7847C41.1653 17.5892 41.2677 17.3515 41.2987 17.0997C41.3297 16.8479 41.288 16.5926 41.1787 16.3637Z" fill="black"/>
</svg>
