<svg width="56" height="56" viewBox="0 0 56 56" fill="none" xmlns="http://www.w3.org/2000/svg">
<path d="M28 23.59C30.4033 23.59 32.3633 25.55 32.3633 28C32.3633 30.3333 30.4033 32.3167 28 32.3167C25.5967 32.3167 23.6367 30.3333 23.6367 28C23.6367 25.55 25.5967 23.59 28 23.59ZM17.1967 46.6667C18.6667 47.5533 21.8867 46.2 25.5967 42.7C24.3833 41.3233 23.1933 39.83 22.0733 38.2667C20.1932 38.0854 18.3239 37.805 16.4733 37.4267C15.2833 42.42 15.7267 45.85 17.1967 46.6667ZM18.8533 33.2733L18.1767 32.0833C17.92 32.76 17.6633 33.4367 17.5 34.09C18.13 34.23 18.83 34.3467 19.5533 34.4633L18.8533 33.2733ZM34.1133 31.5L36.0033 28L34.1133 24.5C33.4133 23.2633 32.6667 22.1667 31.99 21.07C30.73 21 29.4 21 28 21C26.6 21 25.27 21 24.01 21.07C23.3333 22.1667 22.5867 23.2633 21.8867 24.5L19.9967 28L21.8867 31.5C22.5867 32.7367 23.3333 33.8333 24.01 34.93C25.27 35 26.6 35 28 35C29.4 35 30.73 35 31.99 34.93C32.6667 33.8333 33.4133 32.7367 34.1133 31.5ZM28 15.82C27.5567 16.3333 27.09 16.87 26.6233 17.5H29.3767C28.91 16.87 28.4433 16.3333 28 15.82ZM28 40.18C28.4433 39.6667 28.91 39.13 29.3767 38.5H26.6233C27.09 39.13 27.5567 39.6667 28 40.18ZM38.78 9.33333C37.3333 8.44667 34.1133 9.8 30.4033 13.3C31.6167 14.6767 32.8067 16.17 33.9267 17.7333C35.84 17.92 37.73 18.2 39.5267 18.5733C40.7167 13.58 40.2733 10.15 38.78 9.33333ZM37.1467 22.7267L37.8233 23.9167C38.08 23.24 38.3367 22.5633 38.5 21.91C37.87 21.77 37.17 21.6533 36.4467 21.5367L37.1467 22.7267ZM40.53 6.27667C43.96 8.23667 44.3333 13.3933 42.8867 19.4133C48.8133 21.1633 53.0833 24.0567 53.0833 28C53.0833 31.9433 48.8133 34.8367 42.8867 36.5867C44.3333 42.6067 43.96 47.7633 40.53 49.7233C37.1233 51.6833 32.48 49.4433 28 45.1733C23.52 49.4433 18.8767 51.6833 15.4467 49.7233C12.04 47.7633 11.6667 42.6067 13.1133 36.5867C7.18666 34.8367 2.91666 31.9433 2.91666 28C2.91666 24.0567 7.18666 21.1633 13.1133 19.4133C11.6667 13.3933 12.04 8.23667 15.4467 6.27667C18.8767 4.31667 23.52 6.55667 28 10.8267C32.48 6.55667 37.1233 4.31667 40.53 6.27667ZM39.8533 28C40.6467 29.75 41.3467 31.5 41.93 33.2733C46.83 31.8033 49.5833 29.7033 49.5833 28C49.5833 26.2967 46.83 24.1967 41.93 22.7267C41.3467 24.5 40.6467 26.25 39.8533 28ZM16.1467 28C15.3533 26.25 14.6533 24.5 14.07 22.7267C9.16999 24.1967 6.41666 26.2967 6.41666 28C6.41666 29.7033 9.16999 31.8033 14.07 33.2733C14.6533 31.5 15.3533 29.75 16.1467 28ZM37.1467 33.2733L36.4467 34.4633C37.17 34.3467 37.87 34.23 38.5 34.09C38.3367 33.4367 38.08 32.76 37.8233 32.0833L37.1467 33.2733ZM30.4033 42.7C34.1133 46.2 37.3333 47.5533 38.78 46.6667C40.2733 45.85 40.7167 42.42 39.5267 37.4267C37.73 37.8 35.84 38.08 33.9267 38.2667C32.8067 39.83 31.6167 41.3233 30.4033 42.7ZM18.8533 22.7267L19.5533 21.5367C18.83 21.6533 18.13 21.77 17.5 21.91C17.6633 22.5633 17.92 23.24 18.1767 23.9167L18.8533 22.7267ZM25.5967 13.3C21.8867 9.8 18.6667 8.44667 17.1967 9.33333C15.7267 10.15 15.2833 13.58 16.4733 18.5733C18.3239 18.195 20.1932 17.9146 22.0733 17.7333C23.1933 16.17 24.3833 14.6767 25.5967 13.3Z" fill="black"/>
</svg>
