<svg width="56" height="56" viewBox="0 0 56 56" fill="none" xmlns="http://www.w3.org/2000/svg">
<path d="M25.6667 6.062V32.5967H9.1C7.53666 32.5967 6.60333 30.7673 7.59966 29.4793L25.6667 6.062ZM30.3333 18.739V5.44367C30.3333 1.218 24.9737 -0.679 22.358 2.71133L3.90366 26.6233C0.573996 30.94 3.612 37.261 9.1 37.261H25.6667V50.5563C25.6667 54.782 31.024 56.679 33.642 53.2887L52.094 29.3743C55.4237 25.06 52.388 18.739 46.8977 18.739H30.3333ZM30.3333 23.4057H46.9C48.461 23.4057 49.3943 25.235 48.4003 26.523L30.3333 49.938V23.4057Z" fill="black"/>
</svg>
