<svg width="56" height="56" viewBox="0 0 56 56" fill="none" xmlns="http://www.w3.org/2000/svg">
<path d="M28 14C21.77 14 17.8967 17.1033 16.3333 23.3333C18.6667 20.23 21.3967 19.0633 24.5 19.8333C26.2733 20.2767 27.5567 21.56 28.9567 22.9833C31.2433 25.3167 33.8333 28 39.6667 28C45.8967 28 49.77 24.8967 51.3333 18.6667C49 21.77 46.27 22.9367 43.1667 22.1667C41.3933 21.7233 40.1333 20.44 38.71 19.0167C36.4233 16.6833 33.8333 14 28 14ZM16.3333 28C10.1033 28 6.22999 31.1033 4.66666 37.3333C6.99999 34.23 9.72999 33.0633 12.8333 33.8333C14.6067 34.2767 15.8667 35.56 17.29 36.9833C19.5767 39.3167 22.1667 42 28 42C34.23 42 38.1033 38.8967 39.6667 32.6667C37.3333 35.77 34.6033 36.9367 31.5 36.1667C29.7267 35.7233 28.4667 34.44 27.0433 33.0167C24.7567 30.6833 22.1667 28 16.3333 28Z" fill="black"/>
</svg>
