<svg width="56" height="56" viewBox="0 0 56 56" fill="none" xmlns="http://www.w3.org/2000/svg">
<mask id="mask0_2047_30" style="mask-type:luminance" maskUnits="userSpaceOnUse" x="0" y="0" width="56" height="56">
<path d="M0 0H56V56H0V0Z" fill="white"/>
</mask>
<g mask="url(#mask0_2047_30)">
<path d="M54.6677 8.18788e-06H1.33C1.15515 7.91879e-06 0.982009 0.0344866 0.820493 0.101471C0.658978 0.168456 0.512257 0.266632 0.388724 0.390381C0.265192 0.51413 0.167273 0.661024 0.100572 0.822656C0.0338704 0.984288 -0.000304712 1.15749 2.05057e-06 1.33234V54.67C-0.000305326 54.8451 0.0339467 55.0184 0.100794 55.1802C0.167641 55.342 0.265768 55.489 0.389548 55.6128C0.513328 55.7366 0.660325 55.8347 0.82211 55.9015C0.983895 55.9684 1.15728 56.0026 1.33234 56.0023H54.67C54.845 56.0026 55.0184 55.9684 55.1802 55.9015C55.342 55.8347 55.489 55.7366 55.6128 55.6128C55.7366 55.489 55.8347 55.342 55.9015 55.1802C55.9684 55.0184 56.0026 54.8451 56.0023 54.67V1.33001C56.0023 1.15496 55.9678 0.981627 55.9006 0.819959C55.8335 0.658291 55.7351 0.511465 55.6111 0.387902C55.4871 0.264339 55.34 0.16647 55.1781 0.0999059C55.0162 0.0333422 54.8427 -0.000606028 54.6677 8.18788e-06ZM33.334 29.9273H26.6677V50.666H21.3337V29.9273H14.6673V25.333H33.334V29.9273ZM34.8273 49.4807V43.939C34.8273 43.939 37.856 46.221 41.489 46.221C45.122 46.221 44.982 43.8457 44.982 43.519C44.982 40.0727 34.6873 40.0727 34.6873 32.4333C34.6873 22.0453 49.6883 26.145 49.6883 26.145L49.5017 31.0823C49.5017 31.0823 46.9863 29.4047 44.1443 29.4047C41.3023 29.4047 40.278 30.758 40.278 32.2C40.278 35.9263 50.666 35.5553 50.666 43.0547C50.666 54.6047 34.8273 49.483 34.8273 49.483" fill="black"/>
</g>
</svg>
