<svg width="56" height="56" viewBox="0 0 56 56" fill="none" xmlns="http://www.w3.org/2000/svg">
<path d="M54.0138 6.034L42.4935 0.491748C41.8419 0.176091 41.1082 0.0713547 40.3943 0.192109C39.6805 0.312862 39.022 0.653102 38.5105 1.1655L16.4448 21.2992L6.8285 14.007C6.39542 13.6759 5.85986 13.5073 5.31522 13.5307C4.77058 13.554 4.25141 13.7678 3.84825 14.1347L0.768253 16.9417C0.52752 17.1593 0.334932 17.4248 0.20285 17.7211C0.0707692 18.0175 0.00211318 18.3382 0.00128924 18.6627C0.000465305 18.9872 0.0674916 19.3082 0.198066 19.6052C0.32864 19.9023 0.519878 20.1687 0.759503 20.3875L9.1 27.9982L0.759503 35.609C0.519878 35.8278 0.32864 36.0942 0.198066 36.3913C0.0674916 36.6883 0.000465305 37.0093 0.00128924 37.3338C0.00211318 37.6583 0.0707692 37.979 0.20285 38.2754C0.334932 38.5717 0.52752 38.8372 0.768253 39.0547L3.84825 41.8617C4.25141 42.2287 4.77058 42.4425 5.31522 42.4658C5.85986 42.4892 6.39542 42.3206 6.8285 41.9895L16.4448 34.6885L38.521 54.831C39.0304 55.3438 39.6874 55.6844 40.4001 55.8053C41.1127 55.9261 41.8453 55.821 42.4953 55.5047L54.026 49.9537C54.6202 49.669 55.1214 49.2216 55.4714 48.6634C55.8215 48.1052 56.006 47.4591 56.0035 46.8002V9.184C56.0035 7.8435 55.2283 6.61325 54.0173 6.0305L54.0138 6.034ZM42.0088 40.7155L25.256 28L42.0088 15.2845V40.7155Z" fill="black"/>
</svg>
