<svg width="36" height="36" viewBox="0 0 36 36" fill="none" xmlns="http://www.w3.org/2000/svg">
<path d="M28.575 7.36499C27.1996 5.97615 25.5615 4.87494 23.7563 4.12553C21.951 3.37613 20.0146 2.99351 18.06 2.99999C9.87001 2.99999 3.19501 9.67499 3.19501 17.865C3.19501 20.49 3.88501 23.04 5.17501 25.29L3.07501 33L10.95 30.93C13.125 32.115 15.57 32.745 18.06 32.745C26.25 32.745 32.925 26.07 32.925 17.88C32.925 13.905 31.38 10.17 28.575 7.36499ZM18.06 30.225C15.84 30.225 13.665 29.625 11.76 28.5L11.31 28.23L6.63001 29.46L7.87501 24.9L7.57501 24.435C6.34133 22.4656 5.6864 20.1889 5.68501 17.865C5.68501 11.055 11.235 5.50499 18.045 5.50499C21.345 5.50499 24.45 6.79499 26.775 9.13499C27.9264 10.2808 28.8389 11.6438 29.4594 13.145C30.08 14.6462 30.3963 16.2556 30.39 17.88C30.42 24.69 24.87 30.225 18.06 30.225ZM24.84 20.985C24.465 20.805 22.635 19.905 22.305 19.77C21.96 19.65 21.72 19.59 21.465 19.95C21.21 20.325 20.505 21.165 20.295 21.405C20.085 21.66 19.86 21.69 19.485 21.495C19.11 21.315 17.91 20.91 16.5 19.65C15.39 18.66 14.655 17.445 14.43 17.07C14.22 16.695 14.4 16.5 14.595 16.305C14.76 16.14 14.97 15.87 15.15 15.66C15.33 15.45 15.405 15.285 15.525 15.045C15.645 14.79 15.585 14.58 15.495 14.4C15.405 14.22 14.655 12.39 14.355 11.64C14.055 10.92 13.74 11.01 13.515 10.995H12.795C12.54 10.995 12.15 11.085 11.805 11.46C11.475 11.835 10.515 12.735 10.515 14.565C10.515 16.395 11.85 18.165 12.03 18.405C12.21 18.66 14.655 22.41 18.375 24.015C19.26 24.405 19.95 24.63 20.49 24.795C21.375 25.08 22.185 25.035 22.83 24.945C23.55 24.84 25.035 24.045 25.335 23.175C25.65 22.305 25.65 21.57 25.545 21.405C25.44 21.24 25.215 21.165 24.84 20.985Z" fill="black"/>
</svg>
