<svg width="26" height="30" viewBox="0 0 26 30" fill="none" xmlns="http://www.w3.org/2000/svg">
<path d="M10.4022 0.495605H9.87931C4.55087 0.495605 0.21875 4.82732 0.21875 10.1525V20.3323H10.3995C15.7252 20.3323 20.06 16.0006 20.06 10.6727V10.1498C20.06 4.82732 15.7279 0.495605 10.4022 0.495605ZM16.7297 10.1525V10.6754C16.7297 14.165 13.8894 17.0051 10.3995 17.0051H3.54628V10.1525C3.54628 6.66293 6.38665 3.82282 9.87656 3.82282H10.3995C13.8921 3.82282 16.7297 6.66293 16.7297 10.1525Z" fill="#EC1D42"/>
<path d="M15.827 9.66797H5.64355V19.8478C5.64355 25.173 9.97566 29.5074 15.3013 29.5074H15.8243C21.15 29.5074 25.4848 25.1757 25.4848 19.8478V19.3249C25.4848 13.9997 21.1527 9.66797 15.827 9.66797ZM22.1545 19.3249V19.8478C22.1545 23.3374 19.3142 26.1775 15.8243 26.1775H15.3013C11.8114 26.1775 8.97107 23.3374 8.97107 19.8478V12.9952H15.8243C19.3169 12.9979 22.1545 15.8353 22.1545 19.3249Z" fill="#002A53"/>
<path d="M10.4022 0.495605H9.87931C4.55087 0.495605 0.21875 4.82732 0.21875 10.1525V10.3507H3.54903V10.1525C3.54903 6.66293 6.3894 3.82282 9.87931 3.82282H10.4022C13.8921 3.82282 16.7325 6.66293 16.7325 10.1525V10.6754C16.7325 14.165 13.8921 17.0051 10.4022 17.0051H9.68115V20.3351H10.4022C15.7279 20.3351 20.0628 16.0034 20.0628 10.6754V10.1525C20.06 4.82732 15.7279 0.495605 10.4022 0.495605Z" fill="#EC1D42"/>
</svg>
