<svg width="164" height="158" viewBox="0 0 164 158" fill="none" xmlns="http://www.w3.org/2000/svg">
<path d="M151 89.9C149.6 92.7 148 95.3 146.3 97.8C146.9 89.3 145.8 80.7 143 72.4C140.5 65 136.7 58.3 131.9 52.4C130.5 55.4 127.4 57.6 123.9 57.8C123.2 57.8 122.4 57.8 121.7 57.6C123 68.3 121.3 79.5 116.2 89.8C110.2 102 100.5 111.1 89 116.5C90.3 118 91.1 120 91.3 122.1C91.4 124.4 90.7 126.5 89.5 128.1C92.7 128.6 96 128.9 99.3 128.9C106.3 128.9 113.3 127.7 120.2 125.4C124.8 123.8 129.2 121.7 133.3 119.2C126.5 132.6 114.9 142.7 100.6 147.6C86 152.6 70.4 151.6 56.6 144.8C45 139.1 36.1 130 30.7 119.2C32.5 120.3 34.3 121.3 36.2 122.2C45.3 126.7 55 128.8 64.5 128.8C67.8 128.8 71.2 128.5 74.4 128C73.3 126.6 72.7 124.8 72.6 122.9C72.5 120.4 73.3 118.1 74.8 116.4C74.5 116.3 74.2 116.2 73.9 116C51.4 104.9 39.3 81.1 42.1 57.5C41.7 57.6 41.3 57.6 40.9 57.6C37 58 33.5 55.8 32 52.4C28.9 56.1 26.3 60.3 24 64.8C18.8 75.4 16.8 86.8 17.6 97.9C5.80003 81.2 3.20003 58.7 12.8 39.1C23.6 17.1 46.7 5.10004 69.8 7.20004C57.9 13.3 47.8 23.2 41.4 36.1C40.9 37.1 40.5 38.1 40 39.1C44.4 38.9 48.2 41.7 49.4 45.8C59 39.2 70.4 35.7 82 35.7C90.5 35.7 99.2 37.6 107.3 41.6C109.8 42.8 112.2 44.2 114.4 45.8C115.5 42.1 118.9 39.4 122.9 39.2C123.2 39.2 123.4 39.2 123.7 39.2C118 25.8 107.8 14.3 94 7.20004C95.8 7.00004 97.5 6.90004 99.3 6.90004C107.8 6.90004 116.5 8.80004 124.6 12.8C138.4 19.6 148.7 31.3 153.7 45.9C158.8 60.5 157.8 76.1 151 89.9ZM137.7 107.4C132 112.5 125.3 116.5 117.9 119C110.1 121.7 102 122.6 94 121.8C105.9 115.7 116.1 105.8 122.4 92.9C127.6 82.2 129.6 70.8 128.8 59.7C132 64.2 134.6 69.2 136.4 74.6C140.1 85.4 140.5 96.7 137.7 107.4ZM30.2 67.8C31.6 65 33.2 62.3 35 59.9C33.2 84.9 46.3 109.7 69.8 121.8C59.6 122.8 49 121 39.1 116.2C34.3 113.8 29.9 110.9 26.1 107.4C22.8 94.6 23.9 80.6 30.2 67.8ZM82 9.60004C84.7 10.5 87.3 11.5 89.9 12.8C101.5 18.5 110.3 27.6 115.8 38.4C114 37.3 112.2 36.3 110.4 35.4C89.7 25.2 66.2 27.2 48 38.4C55.2 24.1 67.7 14.1 82 9.60004ZM160.3 43.7C154.7 27.4 143.2 14.2 127.7 6.60004C112.9 -0.699965 96.6 -1.69996 81.9 2.40004C52.6 -5.79996 20.5 7.70004 6.60003 36C-6.09997 61.9 0.200027 92.2 20 111.2C24.9 128 36.5 142.9 53.5 151.2C62.5 155.6 72.2 157.8 81.9 157.8C88.9 157.8 95.9 156.6 102.8 154.3C119.1 148.7 132.3 137.2 139.9 121.7C141.6 118.3 142.9 114.7 144 111.2C149.4 106 153.9 99.9 157.3 93C164.8 77.5 165.9 60 160.3 43.7Z" fill="#95C127"/>
</svg>
