<svg width="64" height="82" viewBox="0 0 64 82" fill="none" xmlns="http://www.w3.org/2000/svg">
<path d="M9.94496 61.0199C3.39029 53.4822 1.96744 44.4914 2.98793 34.2859C3.22436 32.0732 3.03055 30.5052 2.83674 28.9373C1.84577 24.0219 3.81035 18.6652 0.328352 14.015C-0.239519 13.2566 1.00403 9.80428 2.00066 9.49415C3.99348 8.87404 6.6287 9.06286 8.52569 9.94025C9.42265 10.3551 9.57989 13.1566 9.43931 14.8233C9.27263 16.7995 8.42394 18.7182 7.87083 20.6617C10.4394 20.9292 13.3769 22.1151 15.4962 21.2639C19.352 19.7153 23.0587 17.3377 26.182 14.5758C28.4506 12.5698 30.5799 9.41316 25.6854 6.68259C28.0977 4.46542 30.0271 2.69216 32.0072 0.872314C33.7482 2.84311 35.4651 4.78663 37.4515 7.03517C33.9629 10.2052 36.5321 13.3787 39.4708 16.203C44.2915 20.8361 49.8428 23.2451 57.4126 20.5791C56.676 18.8313 55.5614 17.3126 55.4897 15.7462C55.3883 13.5322 55.4258 10.7973 56.6315 9.22857C57.3694 8.26855 61.4544 8.29723 62.1729 9.26514C63.3493 10.8498 63.2688 13.5669 63.2213 15.7959C63.1851 17.4967 62.0821 19.1633 61.9787 20.8768C61.7684 24.3609 61.6885 27.8834 61.9515 31.36C62.9347 44.3587 60.4597 56.2152 49.8569 66.558C53.5775 69.6347 56.9636 72.4348 60.6549 75.4872C53.2955 78.6506 50.5671 73.0414 46.848 70.141C43.9215 72.5853 41.3779 75.0045 38.5457 77.0176C31.3003 82.1676 33.8177 82.9991 25.2692 76.1085C26.6402 74.9222 28.008 74.3682 29.7564 73.9225C36.5924 75.0336 39.1742 69.5753 44.0825 66.1798C41.7105 64.4479 39.9331 63.1502 38.1281 61.5563C37.7836 60.8224 37.4667 60.3847 37.0124 59.6323C35.4127 57.7835 33.9505 56.2494 32.1702 54.3817C30.6068 56.1093 29.3017 57.5515 27.7512 59.0679C27.3491 59.4328 27.1925 59.7235 27.0133 60.0096C26.9908 60.0049 27.0071 60.0479 26.8258 60.0701C26.6445 60.0922 26.2819 60.1377 25.9924 60.0274C24.4182 59.6058 22.7575 59.6953 21.9188 58.9086C19.3175 56.4683 15.8239 56.3277 13.2651 58.7982C12.3222 59.7085 11.061 60.289 9.94496 61.0199ZM30.0937 32.4088C29.3047 31.4533 28.5158 30.4978 27.7268 29.5422C27.5916 35.8937 24.447 42.9642 31.6558 46.4873C33.8134 44.9005 35.6652 43.5386 37.6445 42.083C34.9713 38.6611 32.7498 35.8175 30.0937 32.4088ZM36.6612 51.9534C42.3851 56.1418 53.6845 54.6428 54.81 48.9744C49.4656 48.9744 44.2163 48.8657 38.9799 49.0765C38.0568 49.1137 37.1875 50.4871 36.6612 51.9534ZM21.2814 48.9788C17.3879 48.9788 13.4945 48.9788 9.60102 48.9788C9.34073 49.605 9.08045 50.2312 8.82017 50.8574C10.3951 51.9017 12.0689 53.95 13.5269 53.8064C18.3693 53.3296 24.2505 56.3691 29.0211 49.8072C25.9395 49.4325 24.0734 49.2056 21.2814 48.9788ZM30.7008 24.7626C32.5978 27.173 34.4949 29.5834 36.6226 32.2869C38.4652 23.1584 38.1132 21.9567 31.9034 15.4235C30.5136 17.228 29.1428 19.0079 27.7258 20.8476C28.6606 22.0959 29.4488 23.1485 30.7008 24.7626ZM43.7562 42.4529C43.9707 42.9805 44.1747 43.9628 44.401 43.968C48.4731 44.0607 52.548 44.0355 57.0218 44.0355C56.8369 41.9571 56.7155 40.5921 56.5795 39.0637C52.0582 39.529 47.4519 37.366 43.7562 42.4529ZM13.4767 44.051C15.8996 44.051 18.3226 44.051 21.016 44.051C17.5815 38.4135 15.8669 37.8975 7.89535 39.7271C7.83723 43.9256 7.83723 43.9256 13.4767 44.051ZM48.1807 26.2699C46.6057 25.9382 45.0307 25.6065 43.5013 25.2844C43.5013 28.621 43.5013 31.7423 43.5013 35.693C46.5345 32.5161 48.9259 30.0115 51.6824 27.1245C50.2104 26.7638 49.5826 26.61 48.1807 26.2699ZM15.409 26.5475C14.6935 26.7443 13.978 26.9411 14.0683 26.9163C16.1922 29.5124 18.3944 32.204 20.8167 35.1649C20.8167 31.492 20.8167 28.4615 20.8167 25.3425C19.0334 25.7127 17.5861 26.0132 15.409 26.5475Z" fill="#464545"/>
<path d="M10.047 61.3554C11.061 60.2891 12.3222 59.7086 13.2651 58.7983C15.8239 56.3278 19.3174 56.4684 21.9188 58.9087C22.7575 59.6954 24.4182 59.6059 25.9369 60.2428C26.1709 60.5683 26.0893 61.0055 25.7915 61.1597C23.9679 62.9024 22.4421 64.491 20.8514 66.1472C24.0317 69.0076 26.7037 71.4109 29.3758 73.8142C28.008 74.3683 26.6401 74.9223 25.099 75.8178C22.4704 74.2371 20.0152 72.3149 17.4598 70.3143C13.6843 72.5907 11.6528 78.5884 4.77472 75.7502C7.63445 72.5547 10.4558 69.4021 13.4113 66.0995C12.277 64.5665 11.213 63.1286 10.047 61.3554Z" fill="#484847"/>
<path d="M2.74159 29.3593C3.03055 30.5052 3.22436 32.0732 3.11441 33.8636C2.75591 32.6511 2.70117 31.2162 2.74159 29.3593Z" fill="#333333"/>
<path d="M36.4773 51.5983C37.1875 50.487 38.0568 49.1136 38.9799 49.0764C44.2163 48.8656 49.4656 48.9743 54.81 48.9743C53.6844 54.6427 42.3851 56.1417 36.4773 51.5983Z" fill="#E3242D"/>
<path d="M21.7443 48.9788C24.0733 49.2056 25.9394 49.4325 29.021 49.8072C24.2505 56.3691 18.3693 53.3296 13.5268 53.8064C12.0689 53.95 10.3951 51.9016 8.82013 50.8574C9.08041 50.2312 9.3407 49.605 9.60098 48.9788C13.4944 48.9788 17.3879 48.9788 21.7443 48.9788Z" fill="#E4252C"/>
<path d="M35.6214 60.184C35.8748 60.1368 36.1282 60.0895 36.7657 59.9946C37.4667 60.3847 37.7836 60.8224 38.1281 61.5563C38.022 61.9837 37.8883 62.115 37.3493 62.2222C36.5032 61.5267 36.0623 60.8554 35.6214 60.184Z" fill="#F5EFED"/>
<path d="M27.7512 59.0678C27.9966 58.9935 28.0042 59.4928 28.0005 59.7422C27.9969 59.9916 27.5163 60.0061 27.2761 60.0101C27.1925 59.7234 27.3491 59.4327 27.7512 59.0678Z" fill="#EBE4E4"/>
<path d="M26.8258 60.0701C26.9301 60.3603 26.7625 60.6125 26.2968 60.9049C26.0893 61.0054 26.1709 60.5682 26.2264 60.353C26.2819 60.1377 26.6445 60.0922 26.8258 60.0701Z" fill="#EBE4E4"/>
<path d="M35.2204 60.1527C36.0623 60.8553 36.5032 61.5267 37.1499 62.4202C37.2765 64.3009 37.6868 66.2056 37.0051 67.5611C35.9478 69.6633 34.1461 71.391 32.6574 73.2808C25.7739 67.5863 25.1268 65.9399 28.1668 61.3067C28.7279 60.6036 28.9389 60.336 29.1499 60.0684C31.0397 60.0861 32.9295 60.1038 35.2204 60.1527Z" fill="#EA2B31"/>
<path d="M28.8652 60.0391C28.9389 60.3361 28.7279 60.6038 28.2754 60.9666C28.0243 60.8855 28.0147 60.7092 28.0066 60.2681C28.1989 60.0055 28.3897 60.0076 28.8652 60.0391Z" fill="#EBE4E4"/>
</svg>
